<svg width="449" height="447" viewBox="0 0 449 447" fill="none" xmlns="http://www.w3.org/2000/svg">
<path d="M365.5 223.5C365.5 301.924 301.924 365.5 223.5 365.5C145.076 365.5 81.5 301.924 81.5 223.5C81.5 145.076 145.076 81.5 223.5 81.5C301.924 81.5 365.5 145.076 365.5 223.5Z" stroke="white"/>
<path d="M421.614 231.275L421.596 232.071L395.049 231.456C390.767 231.357 387.523 230.637 385.317 229.297C383.072 227.994 381.494 225.739 380.582 222.533L381.16 222.148C381.847 223.605 382.673 224.761 383.639 225.618C384.605 226.474 385.898 227.111 387.519 227.528C389.139 227.982 391.256 228.24 393.871 228.301L415.529 228.802C416.704 228.829 417.542 228.678 418.042 228.349C418.543 228.019 418.802 227.456 418.821 226.66C418.832 226.168 418.753 225.483 418.584 224.607L419.38 224.626L421.614 231.275ZM429.321 227.586C430.079 227.604 430.717 227.884 431.235 228.427C431.753 229.007 432.002 229.696 431.984 230.492C431.966 231.249 431.687 231.869 431.145 232.349C430.602 232.867 429.951 233.118 429.193 233.1C428.435 233.082 427.797 232.802 427.279 232.259C426.798 231.755 426.566 231.124 426.584 230.366C426.602 229.571 426.864 228.894 427.37 228.337C427.913 227.819 428.563 227.569 429.321 227.586Z" fill="white"/>
<path d="M390.806 240.929C391.047 238.782 391.928 237.05 393.449 235.733C395.007 234.421 396.86 233.885 399.008 234.126C401.871 234.447 403.992 235.601 405.371 237.586C406.75 239.572 407.414 242.489 407.364 246.336L407.22 251.698L409.593 251.964C412.192 252.256 414.317 251.846 415.968 250.734C417.656 249.627 418.623 247.981 418.868 245.796C419.088 243.837 418.784 242.296 417.956 241.174C417.129 240.051 416.075 239.417 414.794 239.274C414.568 239.248 414.225 239.248 413.764 239.272C413.299 239.335 412.916 239.349 412.615 239.315C411.975 239.243 411.504 239.019 411.203 238.642C410.898 238.302 410.777 237.85 410.84 237.285C410.895 236.795 411.132 236.383 411.551 236.049C411.966 235.752 412.569 235.648 413.36 235.737C414.561 235.91 415.743 236.424 416.906 237.279C418.064 238.172 418.99 239.44 419.683 241.081C420.372 242.761 420.585 244.768 420.323 247.104C420.01 249.891 418.859 251.993 416.869 253.41C414.875 254.865 412.314 255.417 409.188 255.066L393.705 253.328C393.027 253.252 392.483 253.343 392.072 253.602C391.699 253.865 391.483 254.261 391.424 254.788C391.335 255.579 391.839 256.36 392.935 257.132L392.57 257.835C391.319 257.084 390.472 256.302 390.029 255.49C389.545 254.711 389.338 254.001 389.41 253.361C389.524 252.343 389.98 251.517 390.776 250.882C391.605 250.288 392.66 250.063 393.941 250.207L397.275 250.581C394.999 249.449 393.288 248.036 392.143 246.344C391.032 244.693 390.586 242.888 390.806 240.929ZM399.588 237.624C397.93 237.438 396.494 237.83 395.279 238.8C394.097 239.811 393.418 241.108 393.24 242.69C393.071 244.197 393.463 245.633 394.416 246.999C395.402 248.407 396.826 249.654 398.687 250.74L405.751 251.533L405.7 246.378C405.665 243.627 405.138 241.527 404.118 240.078C403.132 238.67 401.622 237.852 399.588 237.624Z" fill="white"/>
<path d="M412.962 261.689C415.297 261.406 416.741 260.376 417.297 258.6L418.069 258.791L415.441 269.445L414.668 269.255C415.166 266.762 414.753 265.352 413.428 265.025C413.097 264.943 412.669 264.935 412.145 265.001L391.123 267.604L408.455 279.962C408.888 280.264 409.27 280.456 409.601 280.537C410.926 280.864 411.948 279.808 412.667 277.37L413.439 277.56L411.315 286.172L410.542 285.982C410.795 284.482 409.963 283.028 408.046 281.618L386.263 265.937L386.454 265.164L412.962 261.689Z" fill="white"/>
<path d="M380.626 283.411C381.415 281.4 382.715 279.955 384.525 279.078C386.371 278.214 388.299 278.177 390.311 278.966C392.992 280.018 394.742 281.682 395.559 283.958C396.377 286.233 396.263 289.222 395.217 292.924L393.688 298.066L395.911 298.938C398.346 299.894 400.504 300.049 402.386 299.403C404.304 298.771 405.664 297.431 406.468 295.385C407.188 293.55 407.293 291.983 406.785 290.684C406.277 289.385 405.423 288.5 404.223 288.029C404.011 287.946 403.68 287.857 403.229 287.761C402.764 287.701 402.39 287.616 402.108 287.505C401.508 287.269 401.112 286.931 400.919 286.488C400.712 286.081 400.712 285.613 400.92 285.084C401.1 284.625 401.436 284.289 401.927 284.074C402.405 283.895 403.014 283.951 403.755 284.242C404.87 284.72 405.879 285.523 406.78 286.651C407.667 287.813 408.233 289.277 408.477 291.043C408.707 292.843 408.393 294.837 407.534 297.025C406.509 299.636 404.852 301.368 402.563 302.221C400.26 303.109 397.644 302.978 394.715 301.829L380.213 296.137C379.577 295.888 379.028 295.835 378.564 295.979C378.136 296.137 377.825 296.463 377.631 296.957C377.34 297.698 377.624 298.583 378.483 299.612L377.948 300.196C376.934 299.147 376.319 298.172 376.102 297.273C375.836 296.395 375.82 295.656 376.056 295.056C376.43 294.103 377.083 293.423 378.017 293.016C378.972 292.657 380.049 292.714 381.249 293.185L384.372 294.41C382.467 292.726 381.181 290.918 380.514 288.987C379.868 287.105 379.905 285.246 380.626 283.411ZM389.964 282.495C388.412 281.886 386.923 281.892 385.498 282.513C384.094 283.184 383.102 284.261 382.52 285.743C381.966 287.154 381.973 288.643 382.539 290.209C383.127 291.824 384.179 293.398 385.695 294.929L392.312 297.526L393.599 292.534C394.278 289.868 394.313 287.704 393.704 286.039C393.116 284.424 391.87 283.243 389.964 282.495Z" fill="white"/>
<path d="M371.011 304.276C371.471 303.404 371.996 302.653 372.587 302.021C373.159 301.423 373.842 300.82 374.636 300.21C375.378 299.616 375.829 299.168 375.988 298.866C376.271 298.329 375.843 297.761 374.703 297.159L375.074 296.455L383.733 299.418L383.362 300.122C380.912 299.729 378.71 300.002 376.756 300.943C374.803 301.884 373.366 303.225 372.446 304.969C371.543 306.678 371.262 308.309 371.601 309.859C371.922 311.443 372.803 312.615 374.245 313.376C375.351 313.96 376.432 314.145 377.488 313.931C378.544 313.717 379.529 313.272 380.442 312.597C381.372 311.973 382.554 311.032 383.989 309.775C385.562 308.419 386.865 307.371 387.899 306.631C388.966 305.908 390.138 305.434 391.415 305.207C392.725 304.999 394.084 305.266 395.492 306.009C397.47 307.053 398.691 308.598 399.155 310.643C399.652 312.705 399.325 314.826 398.175 317.005C397.715 317.877 397.208 318.595 396.653 319.159C396.098 319.723 395.397 320.361 394.551 321.071C393.861 321.565 393.446 321.946 393.305 322.214C393.163 322.482 393.183 322.728 393.365 322.953C393.562 323.229 393.963 323.526 394.566 323.844L394.194 324.548L386.192 321.803L386.563 321.099C388.864 321.37 390.896 321.093 392.661 320.267C394.408 319.474 395.759 318.173 396.714 316.363C397.51 314.854 397.746 313.392 397.421 311.978C397.13 310.581 396.33 309.538 395.023 308.848C394.05 308.335 393.095 308.195 392.158 308.429C391.22 308.662 390.338 309.075 389.511 309.668C388.666 310.293 387.586 311.202 386.271 312.394C384.714 313.801 383.368 314.891 382.232 315.663C381.112 316.486 379.837 316.992 378.409 317.181C376.996 317.421 375.502 317.126 373.926 316.294C371.814 315.18 370.469 313.505 369.891 311.271C369.328 309.088 369.702 306.757 371.011 304.276Z" fill="white"/>
<path d="M372.923 340.073C375.586 340.745 377.825 340.76 379.641 340.119C381.488 339.499 383.011 338.313 384.209 336.561C385.171 335.153 385.626 333.581 385.573 331.845C385.498 330.141 384.934 328.447 383.881 326.763C382.838 325.132 381.394 323.685 379.547 322.423C377.545 321.054 375.41 320.146 373.144 319.699C370.91 319.273 368.795 319.412 366.8 320.114C364.804 320.816 363.165 322.106 361.881 323.984C360.876 325.454 360.436 327.105 360.562 328.936C360.666 330.798 361.33 332.515 362.552 334.085L361.994 334.599C360.103 332.663 358.993 330.458 358.665 327.984C358.367 325.53 358.957 323.224 360.433 321.065C361.802 319.062 363.57 317.584 365.736 316.632C367.881 315.71 370.182 315.401 372.639 315.703C375.096 316.005 377.435 316.915 379.657 318.434C382.066 320.081 383.958 322.017 385.33 324.241C386.702 326.465 387.412 328.718 387.459 331C387.538 333.303 386.935 335.394 385.651 337.272C384.924 338.336 384.183 339.184 383.43 339.816C382.707 340.47 381.943 341.05 381.138 341.556C380.534 341.97 380.179 342.255 380.072 342.411C379.922 342.63 379.925 342.861 380.079 343.105C380.213 343.38 380.519 343.704 380.999 344.078L380.613 344.641L372.474 340.73L372.923 340.073Z" fill="white"/>
<path d="M369.797 357.175C368.964 358.159 368.113 358.755 367.243 358.962C366.402 359.194 365.692 359.065 365.113 358.576C364.736 358.258 364.514 357.846 364.444 357.341C364.351 356.864 364.463 356.438 364.781 356.062C365.05 355.743 365.302 355.534 365.535 355.434C365.798 355.358 366.143 355.302 366.57 355.266C367.075 355.197 367.472 355.11 367.759 355.005C368.046 354.9 368.348 354.66 368.667 354.284C369.278 353.56 369.591 352.633 369.604 351.502C369.621 350.424 369.338 349.292 368.754 348.103C368.146 346.944 367.277 345.887 366.148 344.932L355.379 335.829C354.424 335.021 353.464 334.806 352.501 335.182C351.566 335.584 350.353 336.519 348.862 337.989L348.255 337.475L356.771 327.401L357.379 327.915C356.516 329.17 356.079 330.216 356.068 331.05C356.086 331.91 356.53 332.706 357.398 333.441L371.641 345.481C372.567 346.264 373.314 346.672 373.882 346.705C374.454 346.792 374.997 346.531 375.511 345.923C375.829 345.547 376.197 344.964 376.615 344.176L377.223 344.69L374.826 351.226L374.312 351.834L369.188 347.502C370.442 349.307 371.114 351.066 371.204 352.78C371.293 354.494 370.824 355.959 369.797 357.175Z" fill="white"/>
<path d="M345.367 346.712C344.524 345.893 343.701 345.516 342.897 345.582C342.068 345.674 341.03 346.225 339.785 347.235L339.214 346.681L347.296 338.36L347.867 338.915C346.92 340.162 346.426 341.188 346.384 341.992C346.315 342.824 346.703 343.65 347.546 344.469L360.883 357.424C361.753 358.269 362.47 358.727 363.034 358.8C363.599 358.925 364.158 358.703 364.713 358.132C365.056 357.778 365.464 357.223 365.935 356.465L366.506 357.02L363.663 363.374L363.109 363.945L345.367 346.712ZM371.623 366.033C372.167 366.561 372.445 367.201 372.455 367.951C372.44 368.729 372.155 369.403 371.6 369.974C371.072 370.518 370.446 370.782 369.722 370.765C368.971 370.776 368.324 370.518 367.78 369.99C367.237 369.461 366.959 368.822 366.948 368.072C366.938 367.375 367.197 366.754 367.726 366.211C368.28 365.64 368.932 365.322 369.682 365.257C370.432 365.246 371.08 365.505 371.623 366.033Z" fill="white"/>
<path d="M348.027 377.447C346.198 378.982 344.211 379.857 342.066 380.073C339.922 380.289 337.78 379.86 335.641 378.785C333.497 377.763 331.523 376.178 329.72 374.029C327.722 371.648 326.389 369.204 325.72 366.697C325.023 364.214 324.988 361.844 325.616 359.585C326.268 357.355 327.567 355.423 329.513 353.791C330.732 352.767 332.101 352.04 333.619 351.607C335.136 351.175 336.556 351.097 337.877 351.374L331.663 343.97C330.884 343.04 330.026 342.696 329.09 342.937C328.101 343.174 326.732 343.902 324.984 345.121L324.472 344.511L334.621 335.995L335.133 336.605C334.234 337.656 333.654 338.588 333.395 339.399C333.082 340.206 333.304 341.059 334.059 341.959L353.357 364.957C354.113 365.857 354.779 366.387 355.357 366.545C355.936 366.703 356.53 366.526 357.139 366.015C357.488 365.722 357.935 365.223 358.481 364.518L358.993 365.127L355.519 371.16L354.909 371.672L350.231 366.096C351.213 368.093 351.506 370.123 351.111 372.187C350.739 374.28 349.711 376.033 348.027 377.447ZM342.336 356.688C341.386 355.556 340.225 354.674 338.854 354.043C337.483 353.412 336.024 353.176 334.476 353.337C332.924 353.551 331.451 354.243 330.057 355.412C328.721 356.533 327.862 357.898 327.479 359.505C327.097 361.113 327.202 362.831 327.795 364.659C328.384 366.54 329.41 368.352 330.872 370.094C332.699 372.272 334.639 373.935 336.691 375.083C338.738 376.284 340.718 376.874 342.63 376.853C344.567 376.861 346.29 376.232 347.8 374.965C349.165 373.82 349.946 372.273 350.143 370.327C350.365 368.409 350.004 366.534 349.061 364.703L342.336 356.688Z" fill="white"/>
<path d="M309.955 372.22C309.818 371.81 309.786 371.216 309.859 370.438C309.901 369.681 310.121 368.919 310.52 368.151C310.866 367.373 311.418 366.731 312.175 366.226C313.877 365.089 315.58 364.773 317.284 365.276C318.987 365.78 320.533 367.072 321.922 369.153L332.878 385.562L336.803 382.942L337.245 383.604C335.721 385.077 334.85 386.638 334.63 388.289C334.41 389.94 334.79 391.874 335.769 394.092L335.107 394.534L331.161 388.623L324.257 393.232L323.373 391.908L330.277 387.299L319.353 370.936C318.343 369.423 317.212 368.446 315.961 368.005C314.699 367.617 313.453 367.833 312.224 368.654C311.561 369.096 311.12 369.596 310.9 370.153C310.679 370.711 310.533 371.378 310.46 372.156L309.955 372.22Z" fill="white"/>
<path d="M283.796 378.583C285.057 380.734 287.058 382.795 289.798 384.766C292.502 386.752 295.848 388.299 299.836 389.409C303.874 390.539 307.449 390.813 310.562 390.23L311.442 392.45C308.784 394.28 306.464 396.709 304.485 399.737C302.506 402.766 301.096 405.996 300.256 409.429C299.429 412.897 299.311 416.145 299.901 419.174L297.681 420.054C296.651 418.383 295.297 416.82 293.619 415.366C291.905 413.925 289.955 412.659 287.769 411.569C285.597 410.514 283.329 409.681 280.966 409.069C277.399 408.2 274.028 408.029 270.852 408.555L269.971 406.335C271.791 405.165 273.502 403.568 275.106 401.545C276.674 399.536 278.018 397.372 279.136 395.052C280.255 392.733 281.021 390.45 281.436 388.206C282.072 384.773 282.119 381.859 281.577 379.464L283.796 378.583ZM283.56 380.145L282.82 380.439C283.371 382.341 283.816 384.285 284.155 386.271C284.473 388.306 284.682 390.221 284.783 392.017C284.848 393.826 284.784 395.36 284.591 396.62C283.658 397.764 282.476 398.947 281.044 400.168C279.576 401.403 278.021 402.57 276.377 403.671C274.699 404.786 273.106 405.703 271.597 406.424L271.891 407.164C273.497 406.69 275.311 406.276 277.332 405.923C279.332 405.619 281.289 405.413 283.204 405.306C285.133 405.234 286.77 405.298 288.114 405.499C289.132 406.318 290.231 407.391 291.409 408.718C292.567 410.094 293.714 411.596 294.849 413.226C295.964 414.904 296.973 416.624 297.876 418.387L298.616 418.093C298.1 416.381 297.679 414.55 297.354 412.599C297.007 410.697 296.794 408.824 296.715 406.98C296.635 405.136 296.693 403.482 296.887 402.018C297.763 400.936 298.91 399.768 300.328 398.512C301.761 397.291 303.309 396.105 304.974 394.956C306.652 393.841 308.274 392.892 309.839 392.108L309.545 391.368C307.882 391.905 306.075 392.337 304.125 392.662C302.174 392.987 300.259 393.197 298.379 393.29C296.499 393.383 294.828 393.333 293.364 393.139C292.247 392.277 291.096 391.123 289.911 389.676C288.704 388.279 287.543 386.742 286.429 385.063C285.328 383.42 284.372 381.781 283.56 380.145Z" fill="white"/>
<path d="M242.157 394.422C242.199 393.992 242.412 393.437 242.795 392.756C243.142 392.081 243.653 391.475 244.33 390.936C244.963 390.366 245.728 390.005 246.625 389.851C248.643 389.506 250.327 389.911 251.678 391.064C253.029 392.218 253.915 394.027 254.337 396.493L257.662 415.942L262.314 415.146L262.448 415.931C260.457 416.656 259.025 417.727 258.152 419.146C257.28 420.564 256.839 422.485 256.831 424.91L256.046 425.044L254.848 418.038L246.665 419.437L246.397 417.868L254.58 416.469L251.264 397.076C250.957 395.283 250.322 393.93 249.359 393.018C248.364 392.15 247.138 391.84 245.681 392.089C244.896 392.224 244.29 392.5 243.862 392.92C243.434 393.339 243.028 393.889 242.644 394.57L242.157 394.422Z" fill="white"/>
<path d="M241.069 379.316C242.279 379.237 243.412 379.428 244.468 379.891C245.484 380.318 246.021 380.966 246.078 381.836C246.11 382.328 245.967 382.755 245.649 383.118C245.293 383.483 244.85 383.683 244.321 383.718C244.056 383.736 243.749 383.68 243.398 383.551C243.045 383.384 242.693 383.217 242.34 383.051C241.712 382.75 241.184 382.519 240.756 382.357C240.327 382.195 239.829 382.133 239.262 382.17C236.841 382.329 235.007 384.482 233.76 388.628L232.728 392.001L243.938 415.198C244.995 417.407 246.359 418.515 248.031 418.519L248.083 419.313L237.19 420.029L237.138 419.234C239.74 418.949 240.995 418.107 240.903 416.708C240.879 416.329 240.755 415.901 240.534 415.421L231.415 396.304L225.328 416.42C225.176 417 225.112 417.46 225.134 417.8C225.223 419.162 226.444 419.823 228.797 419.782L228.849 420.576L219.998 421.158L219.946 420.363C221.641 420.138 222.867 418.861 223.626 416.532L232.198 388.275C233.913 382.578 236.87 379.592 241.069 379.316Z" fill="white"/>
<path d="M204.554 420.473C202.173 420.289 200.141 419.524 198.459 418.177C196.776 416.831 195.547 415.025 194.771 412.76C193.955 410.529 193.655 408.016 193.871 405.219C194.111 402.12 194.869 399.441 196.146 397.183C197.386 394.921 199.02 393.204 201.05 392.03C203.077 390.894 205.356 390.424 207.889 390.62C209.476 390.742 210.963 391.18 212.349 391.934C213.736 392.687 214.804 393.625 215.554 394.748L216.299 385.11C216.392 383.901 216.02 383.055 215.183 382.572C214.311 382.048 212.824 381.61 210.722 381.258L210.784 380.464L223.993 381.485L223.931 382.279C222.553 382.4 221.488 382.66 220.734 383.058C219.946 383.415 219.507 384.18 219.417 385.351L217.103 415.284C217.012 416.456 217.118 417.3 217.42 417.818C217.722 418.336 218.27 418.625 219.064 418.687C219.518 418.722 220.186 418.678 221.07 418.556L221.009 419.35L214.305 421.227L213.512 421.166L214.072 413.909C213.377 416.023 212.165 417.678 210.438 418.875C208.708 420.11 206.746 420.643 204.554 420.473ZM215.019 401.664C215.133 400.19 214.921 398.748 214.384 397.338C213.847 395.928 212.969 394.738 211.751 393.77C210.493 392.836 208.956 392.299 207.142 392.159C205.404 392.024 203.835 392.397 202.436 393.278C201.038 394.158 199.911 395.459 199.055 397.18C198.159 398.935 197.623 400.947 197.448 403.214C197.229 406.049 197.45 408.594 198.112 410.851C198.734 413.142 199.735 414.949 201.115 416.273C202.493 417.634 204.164 418.39 206.129 418.542C207.906 418.679 209.546 418.122 211.049 416.869C212.55 415.655 213.604 414.063 214.213 412.095L215.019 401.664Z" fill="white"/>
<path d="M184.44 386.849C186.96 387.39 189.038 388.456 190.674 390.047C192.302 391.676 193.389 393.654 193.937 395.982C194.476 398.346 194.459 400.862 193.887 403.531C193.25 406.496 192.167 409.016 190.636 411.091C189.06 413.196 187.188 414.694 185.019 415.585C182.851 416.477 180.543 416.66 178.097 416.135C176.207 415.729 174.676 414.916 173.503 413.695C172.294 412.467 171.485 410.994 171.078 409.279C170.671 407.563 170.666 405.779 171.064 403.925C171.207 403.258 171.333 402.762 171.441 402.436L189.732 406.361C189.864 405.924 190.034 405.224 190.241 404.261C191.044 400.517 190.755 397.257 189.374 394.479C187.948 391.731 185.567 389.998 182.231 389.283C180.637 388.941 179.081 389.149 177.561 389.909C175.996 390.697 174.79 391.892 173.942 393.494L173.255 393.172C174.196 390.776 175.704 388.987 177.78 387.804C179.811 386.65 182.031 386.332 184.44 386.849ZM174.36 404.284C173.655 406.846 173.768 409.119 174.699 411.103C175.631 413.086 177.171 414.308 179.321 414.769C181.619 415.262 183.62 414.878 185.326 413.615C187.031 412.353 188.379 410.316 189.37 407.505L174.36 404.284Z" fill="white"/>
<path d="M167.223 381.747C168.159 382.058 168.986 382.453 169.705 382.932C170.389 383.4 171.096 383.975 171.828 384.658C172.535 385.293 173.051 385.664 173.374 385.772C173.95 385.964 174.441 385.448 174.848 384.225L175.604 384.477L174.097 393.503L173.341 393.252C173.328 390.771 172.698 388.643 171.451 386.87C170.204 385.096 168.645 383.898 166.775 383.275C164.94 382.665 163.286 382.653 161.812 383.241C160.302 383.817 159.289 384.878 158.774 386.425C158.379 387.612 158.374 388.709 158.758 389.716C159.142 390.722 159.741 391.621 160.557 392.412C161.324 393.227 162.445 394.239 163.92 395.449C165.515 396.779 166.762 397.894 167.662 398.792C168.549 399.727 169.209 400.806 169.641 402.028C170.061 403.287 170.019 404.671 169.517 406.182C168.81 408.304 167.486 409.761 165.545 410.552C163.591 411.38 161.445 411.405 159.107 410.627C158.172 410.316 157.381 409.932 156.734 409.477C156.086 409.022 155.343 408.435 154.503 407.716C153.904 407.117 153.46 406.769 153.172 406.674C152.885 406.578 152.645 406.638 152.453 406.854C152.213 407.093 151.986 407.537 151.77 408.184L151.015 407.933L152.414 399.589L153.17 399.841C153.278 402.154 153.885 404.114 154.988 405.72C156.055 407.314 157.56 408.434 159.502 409.08C161.121 409.619 162.601 409.613 163.944 409.061C165.274 408.545 166.173 407.585 166.64 406.183C166.987 405.14 166.969 404.175 166.585 403.288C166.201 402.401 165.649 401.598 164.929 400.879C164.174 400.148 163.101 399.232 161.71 398.129C160.067 396.823 158.772 395.673 157.825 394.679C156.829 393.708 156.122 392.534 155.701 391.155C155.233 389.801 155.281 388.278 155.844 386.588C156.598 384.322 158.03 382.721 160.139 381.785C162.2 380.874 164.562 380.861 167.223 381.747Z" fill="white"/>
<path d="M132.53 389.61C132.307 392.347 132.662 394.558 133.594 396.243C134.51 397.962 135.932 399.268 137.858 400.16C139.406 400.877 141.031 401.066 142.734 400.726C144.402 400.371 145.98 399.535 147.467 398.219C148.904 396.92 150.092 395.257 151.032 393.227C152.051 391.026 152.594 388.771 152.661 386.462C152.711 384.188 152.225 382.125 151.203 380.273C150.181 378.421 148.638 377.017 146.574 376.062C144.958 375.313 143.257 375.152 141.472 375.579C139.652 375.989 138.069 376.927 136.722 378.392L136.123 377.927C137.72 375.742 139.711 374.283 142.098 373.55C144.468 372.851 146.84 373.052 149.214 374.151C151.415 375.17 153.164 376.67 154.462 378.649C155.725 380.613 156.41 382.831 156.518 385.304C156.626 387.777 156.115 390.234 154.984 392.676C153.757 395.325 152.161 397.51 150.194 399.231C148.227 400.952 146.123 402.024 143.88 402.447C141.621 402.905 139.459 402.656 137.395 401.7C136.226 401.159 135.267 400.568 134.519 399.929C133.754 399.325 133.056 398.667 132.424 397.957C131.917 397.43 131.577 397.126 131.405 397.046C131.164 396.935 130.936 396.976 130.722 397.169C130.472 397.346 130.203 397.701 129.914 398.236L129.295 397.949L131.808 389.275L132.53 389.61Z" fill="white"/>
<path d="M115.156 389.287C114.049 388.627 113.322 387.885 112.975 387.06C112.608 386.268 112.619 385.547 113.007 384.896C113.259 384.472 113.629 384.185 114.116 384.034C114.57 383.863 115.009 383.904 115.433 384.157C115.791 384.37 116.039 384.584 116.176 384.798C116.294 385.044 116.405 385.376 116.511 385.791C116.662 386.278 116.812 386.655 116.963 386.921C117.113 387.187 117.4 387.446 117.823 387.698C118.637 388.183 119.603 388.34 120.721 388.167C121.787 388.008 122.858 387.543 123.935 386.772C124.979 385.982 125.879 384.952 126.636 383.682L133.853 371.568C134.493 370.493 134.548 369.511 134.019 368.622C133.47 367.766 132.349 366.723 130.654 365.493L131.062 364.809L142.395 371.56L141.987 372.244C140.607 371.598 139.504 371.339 138.679 371.465C137.835 371.623 137.121 372.191 136.539 373.168L126.994 389.191C126.374 390.233 126.093 391.037 126.154 391.602C126.162 392.181 126.508 392.674 127.192 393.081C127.615 393.333 128.25 393.601 129.096 393.884L128.689 394.568L121.849 393.273L121.165 392.866L124.599 387.102C123.024 388.634 121.398 389.585 119.722 389.955C118.046 390.324 116.524 390.101 115.156 389.287Z" fill="white"/>
<path d="M121.472 363.44C122.142 362.475 122.379 361.601 122.184 360.82C121.957 360.016 121.244 359.082 120.044 358.019L120.499 357.365L130.026 363.981L129.572 364.635C128.187 363.904 127.095 363.584 126.294 363.674C125.462 363.742 124.711 364.259 124.04 365.224L113.435 380.496C112.743 381.492 112.408 382.275 112.429 382.843C112.397 383.421 112.708 383.937 113.361 384.391C113.766 384.672 114.381 384.983 115.205 385.325L114.751 385.978L108.018 384.21L107.364 383.756L121.472 363.44ZM106.693 392.498C106.261 393.12 105.676 393.498 104.937 393.632C104.167 393.743 103.455 393.572 102.802 393.118C102.179 392.685 101.816 392.111 101.714 391.394C101.581 390.655 101.731 389.974 102.163 389.352C102.596 388.729 103.181 388.351 103.92 388.218C104.606 388.094 105.26 388.249 105.883 388.681C106.536 389.135 106.956 389.727 107.142 390.456C107.276 391.194 107.126 391.875 106.693 392.498Z" fill="white"/>
<path d="M91.5059 370.958C89.699 369.396 88.5182 367.574 87.9634 365.492C87.4086 363.409 87.4915 361.226 88.2121 358.943C88.8793 356.664 90.13 354.463 91.9642 352.34C93.9967 349.989 96.1972 348.283 98.5657 347.224C100.905 346.14 103.24 345.728 105.571 345.988C107.876 346.277 109.99 347.252 111.911 348.913C113.116 349.954 114.052 351.189 114.721 352.618C115.389 354.048 115.692 355.437 115.629 356.785L121.949 349.472C122.743 348.554 122.946 347.652 122.559 346.767C122.168 345.828 121.231 344.592 119.749 343.061L120.27 342.459L130.293 351.122L129.773 351.724C128.592 351.004 127.58 350.58 126.737 350.453C125.891 350.273 125.084 350.627 124.315 351.516L104.685 374.231C103.916 375.12 103.5 375.863 103.436 376.459C103.372 377.054 103.641 377.613 104.243 378.133C104.587 378.431 105.151 378.793 105.935 379.219L105.414 379.822L98.9053 377.353L98.303 376.832L103.062 371.326C101.248 372.614 99.2901 373.226 97.1893 373.164C95.0638 373.131 93.1693 372.396 91.5059 370.958ZM111.093 362.033C112.06 360.915 112.745 359.629 113.15 358.175C113.555 356.721 113.555 355.243 113.15 353.741C112.691 352.242 111.774 350.898 110.397 349.708C109.078 348.568 107.594 347.937 105.946 347.815C104.297 347.693 102.618 348.071 100.908 348.948C99.145 349.829 97.5198 351.13 96.0326 352.85C94.1736 355.001 92.8408 357.181 92.0341 359.39C91.174 361.603 90.9066 363.651 91.2319 365.536C91.5325 367.449 92.4285 369.05 93.9198 370.339C95.2678 371.504 96.9185 372.028 98.872 371.913C100.801 371.826 102.594 371.172 104.252 369.949L111.093 362.033Z" fill="white"/>
<path d="M90.6162 332.622C90.999 332.421 91.5803 332.295 92.36 332.243C93.1139 332.163 93.9017 332.259 94.7233 332.53C95.5469 332.748 96.2684 333.189 96.8879 333.856C98.2818 335.355 98.8663 336.985 98.6413 338.747C98.4163 340.509 97.3877 342.242 95.5555 343.946L81.1064 357.381L84.3201 360.838L83.7371 361.38C82.0398 360.111 80.3589 359.5 78.6942 359.547C77.0296 359.594 75.1808 360.277 73.148 361.598L72.6059 361.015L77.8109 356.175L72.158 350.096L73.3239 349.012L78.9769 355.091L93.3844 341.694C94.7168 340.455 95.5007 339.183 95.7359 337.877C95.9176 336.57 95.505 335.375 94.4983 334.292C93.9563 333.709 93.3925 333.353 92.8071 333.225C92.2217 333.096 91.5392 333.058 90.7594 333.11L90.6162 332.622Z" fill="white"/>
<path d="M80.0843 307.909C78.1674 309.503 76.4588 311.812 74.9587 314.835C73.4391 317.827 72.456 321.38 72.0096 325.495C71.5502 329.663 71.8609 333.235 72.9416 336.212L70.8945 337.441C68.6569 335.115 65.8833 333.222 62.5735 331.761C59.2638 330.3 55.8471 329.434 52.3234 329.162C48.7673 328.911 45.543 329.322 42.6507 330.396L41.4209 328.349C42.9025 327.061 44.2246 325.471 45.3873 323.578C46.5304 321.654 47.4622 319.524 48.1826 317.19C48.8705 314.875 49.3243 312.502 49.544 310.071C49.8217 306.41 49.4428 303.056 48.4076 300.008L50.4548 298.778C51.9053 300.383 53.7588 301.812 56.0153 303.066C58.2523 304.287 60.6061 305.261 63.0769 305.987C65.5476 306.714 67.9239 307.1 70.2057 307.144C73.6968 307.214 76.5797 306.786 78.8546 305.862L80.0843 307.909ZM78.5046 307.93L78.0947 307.247C76.3074 308.1 74.4615 308.855 72.5571 309.512C70.6006 310.157 68.7449 310.675 66.9898 311.066C65.2153 311.424 63.6909 311.61 62.4167 311.624C61.1356 310.89 59.7764 309.916 58.3391 308.701C56.8822 307.453 55.4773 306.108 54.1244 304.666C52.7519 303.191 51.5875 301.768 50.6311 300.397L49.9487 300.806C50.6776 302.314 51.3806 304.037 52.0578 305.974C52.6829 307.898 53.2039 309.796 53.621 311.668C54.0055 313.559 54.2079 315.184 54.2281 316.543C53.5851 317.681 52.7049 318.939 51.5875 320.318C50.418 321.684 49.1218 323.06 47.6988 324.445C46.2238 325.818 44.6903 327.093 43.0981 328.27L43.5081 328.952C45.1134 328.165 46.852 327.452 48.7239 326.814C50.5439 326.163 52.3574 325.649 54.1644 325.271C55.9715 324.893 57.6129 324.68 59.0885 324.634C60.2981 325.323 61.6378 326.265 63.1076 327.46C64.545 328.675 65.9661 330.01 67.3711 331.466C68.7435 332.941 69.9437 334.386 70.9716 335.803L71.654 335.393C70.8536 333.84 70.1343 332.127 69.4962 330.255C68.8582 328.383 68.3404 326.528 67.9429 324.688C67.5453 322.848 67.3234 321.191 67.2772 319.715C67.9461 318.473 68.8978 317.15 70.1322 315.745C71.3147 314.327 72.6434 312.932 74.1184 311.559C75.5609 310.206 77.023 308.996 78.5046 307.93Z" fill="white"/>
<path d="M33.34 279.455C32.9237 278.236 32.8504 277.199 33.12 276.346C33.3537 275.505 33.8293 274.963 34.5468 274.718C35.0132 274.558 35.4809 274.579 35.9498 274.78C36.4065 274.944 36.7145 275.26 36.8736 275.726C37.0083 276.121 37.0586 276.444 37.0244 276.696C36.9544 276.96 36.8248 277.285 36.6358 277.67C36.4353 278.139 36.3062 278.523 36.2484 278.823C36.1906 279.123 36.2413 279.507 36.4005 279.973C36.7066 280.87 37.3412 281.614 38.3045 282.207C39.2196 282.776 40.3368 283.115 41.6562 283.226C42.9634 283.3 44.3165 283.099 45.7157 282.622L59.0611 278.067C60.245 277.663 60.9232 276.951 61.0957 275.931C61.2324 274.923 61.0537 273.402 60.5597 271.367L61.313 271.11L65.5738 283.595L64.8205 283.852C64.1872 282.466 63.5154 281.553 62.805 281.115C62.0587 280.689 61.1475 280.659 60.0712 281.027L42.4208 287.05C41.2728 287.442 40.5386 287.873 40.2183 288.343C39.8499 288.789 39.7942 289.389 40.0514 290.142C40.2105 290.609 40.5206 291.224 40.9816 291.988L40.2282 292.245L35.8561 286.828L35.5989 286.074L41.9488 283.907C39.7561 284.055 37.9017 283.726 36.3856 282.922C34.8694 282.118 33.8542 280.962 33.34 279.455Z" fill="white"/>
<path d="M58.7562 257.103C59.3258 259.617 59.2327 261.951 58.4769 264.104C57.6841 266.266 56.3472 268.085 54.4661 269.561C52.548 271.045 50.2581 272.088 47.5963 272.691C44.6387 273.361 41.8966 273.439 39.3699 272.923C36.7979 272.378 34.6513 271.31 32.9302 269.718C31.2091 268.125 30.0721 266.109 29.5192 263.669C29.092 261.784 29.1855 260.053 29.7999 258.475C30.4058 256.861 31.4013 255.508 32.7865 254.417C34.1717 253.326 35.7885 252.571 37.637 252.152C38.3025 252.001 38.8058 251.907 39.1469 251.868L43.2807 270.113C43.7327 270.049 44.4393 269.908 45.4005 269.691C49.1345 268.845 51.9709 267.211 53.9097 264.789C55.8032 262.339 56.373 259.45 55.6191 256.123C55.2589 254.533 54.4146 253.209 53.0863 252.15C51.7126 251.062 50.1211 250.47 48.3116 250.375L48.3146 249.616C50.8837 249.461 53.1414 250.077 55.0879 251.463C56.9889 252.82 58.2117 254.7 58.7562 257.103ZM38.6985 255.293C36.0771 255.731 34.0627 256.79 32.6553 258.47C31.2479 260.149 30.7871 262.061 31.273 264.205C31.7923 266.497 32.9833 268.151 34.846 269.167C36.7086 270.183 39.1237 270.549 42.091 270.266L38.6985 255.293Z" fill="white"/>
<path d="M56.41 241.479C56.6262 243.629 56.1294 245.508 54.9196 247.115C53.672 248.727 51.9733 249.64 49.8235 249.857C46.9571 250.145 44.6408 249.464 42.8746 247.812C41.1084 246.161 39.8451 243.45 39.0848 239.679L38.0973 234.406L35.7212 234.645C33.1188 234.907 31.1277 235.755 29.748 237.189C28.3306 238.627 27.732 240.44 27.952 242.627C28.1493 244.589 28.7706 246.031 29.8159 246.954C30.8612 247.878 32.0251 248.275 33.3075 248.146C33.5338 248.123 33.8694 248.052 34.3144 247.931C34.7556 247.772 35.1271 247.677 35.4288 247.647C36.07 247.583 36.5774 247.703 36.951 248.008C37.3208 248.276 37.5341 248.693 37.591 249.258C37.6404 249.749 37.4954 250.201 37.1562 250.616C36.8132 250.994 36.2456 251.222 35.4536 251.302C34.2429 251.386 32.9791 251.132 31.6624 250.54C30.3419 249.911 29.1701 248.867 28.1471 247.408C27.1203 245.911 26.4893 243.994 26.2541 241.655C25.9734 238.864 26.6566 236.567 28.3039 234.763C29.9474 232.921 32.3343 231.843 35.4648 231.528L50.9662 229.969C51.6451 229.901 52.1579 229.697 52.5048 229.357C52.8139 229.021 52.9419 228.589 52.8887 228.061C52.8091 227.269 52.1524 226.611 50.9187 226.088L51.1276 225.324C52.5084 225.794 53.5007 226.38 54.1046 227.082C54.7424 227.741 55.0936 228.392 55.1581 229.033C55.2605 230.051 54.9895 230.955 54.3449 231.743C53.6589 232.498 52.6747 232.94 51.3923 233.069L48.0544 233.405C50.5178 234.033 52.4873 235.054 53.9629 236.468C55.397 237.848 56.2127 239.518 56.41 241.479ZM48.5203 246.559C50.1798 246.392 51.5015 245.707 52.4852 244.503C53.4275 243.265 53.8189 241.854 53.6596 240.27C53.5079 238.761 52.8225 237.44 51.6035 236.305C50.3431 235.137 48.6886 234.217 46.6401 233.547L39.5682 234.258L40.7027 239.287C41.3153 241.969 42.2726 243.911 43.5746 245.113C44.835 246.282 46.4836 246.764 48.5203 246.559Z" fill="white"/>
<path d="M34.741 205.599C32.1387 206.476 30.2481 207.677 29.0694 209.2C27.8527 210.721 27.2157 212.543 27.1584 214.665C27.1123 216.371 27.5819 217.938 28.5671 219.368C29.5533 220.759 30.9451 221.878 32.7425 222.723C34.5029 223.529 36.501 223.962 38.7367 224.022C41.1618 224.088 43.4477 223.695 45.5943 222.843C47.703 221.989 49.4056 220.727 50.7021 219.056C51.9987 217.384 52.6777 215.412 52.7391 213.138C52.7872 211.357 52.2624 209.732 51.1645 208.261C50.0676 206.752 48.5801 205.669 46.7018 205.012L46.8923 204.278C49.5305 204.88 51.6581 206.132 53.2752 208.034C54.8544 209.934 55.6087 212.192 55.538 214.807C55.4725 217.232 54.7874 219.432 53.4826 221.406C52.1789 223.343 50.4128 224.85 48.1843 225.927C45.9558 227.005 43.4964 227.507 40.806 227.434C37.8882 227.355 35.25 226.753 32.8915 225.628C30.5329 224.502 28.7156 222.993 27.4395 221.101C26.1255 219.207 25.4993 217.123 25.5607 214.85C25.5955 213.561 25.7584 212.447 26.0492 211.507C26.3022 210.566 26.6299 209.665 27.0324 208.803C27.3161 208.128 27.4605 207.696 27.4656 207.507C27.4728 207.241 27.3453 207.048 27.0831 206.928C26.8219 206.769 26.3887 206.662 25.7835 206.608L25.8019 205.926L34.7625 204.803L34.741 205.599Z" fill="white"/>
<path d="M54.2377 191.755C54.6376 191.919 55.1081 192.283 55.6494 192.847C56.1953 193.373 56.6286 194.037 56.9492 194.841C57.312 195.612 57.4375 196.449 57.3255 197.351C57.0738 199.383 56.2008 200.879 54.7066 201.84C53.2125 202.8 51.224 203.127 48.7411 202.819L29.1605 200.392L28.58 205.076L27.79 204.978C27.6703 202.862 27.0573 201.182 25.9511 199.937C24.8449 198.692 23.1325 197.716 20.8138 197.008L20.9117 196.218L27.9652 197.093L28.9864 188.854L30.5663 189.05L29.5452 197.289L49.0694 199.708C50.8751 199.932 52.3536 199.714 53.5048 199.055C54.6231 198.353 55.2732 197.269 55.455 195.802C55.5529 195.012 55.4629 194.351 55.1849 193.82C54.907 193.289 54.4974 192.742 53.9561 192.178L54.2377 191.755Z" fill="white"/>
<path d="M66.3203 167.972C63.8677 167.526 61.0007 167.698 57.7194 168.489C54.4505 169.245 51.0952 170.773 47.6536 173.073C44.1637 175.396 41.6247 177.928 40.0363 180.668L37.7792 179.888C38.1258 176.679 37.7967 173.337 36.7916 169.862C35.7866 166.386 34.2568 163.211 32.2023 160.335C30.1119 157.447 27.7265 155.239 25.0459 153.712L25.8257 151.455C27.7644 151.763 29.8324 151.756 32.0297 151.432C34.2394 151.073 36.4702 150.42 38.7223 149.473C40.9385 148.515 43.0492 147.339 45.0544 145.946C48.0387 143.809 50.367 141.365 52.0394 138.614L54.2966 139.394C53.9975 141.536 54.0918 143.875 54.5797 146.41C55.0799 148.909 55.8446 151.338 56.8738 153.699C57.9029 156.06 59.1331 158.129 60.5642 159.907C62.7523 162.628 64.931 164.564 67.1002 165.715L66.3203 167.972ZM65.2905 166.774L65.5504 166.021C63.7492 165.199 61.9852 164.268 60.2583 163.231C58.5079 162.145 56.9194 161.054 55.4928 159.96C54.0786 158.83 52.9572 157.78 52.1286 156.812C51.8687 155.359 51.743 153.691 51.7516 151.809C51.7725 149.891 51.9016 147.951 52.1388 145.987C52.3883 143.988 52.7317 142.182 53.1689 140.568L52.4165 140.308C51.7285 141.835 50.8594 143.48 49.8092 145.243C48.7356 146.957 47.6151 148.575 46.4476 150.097C45.2444 151.606 44.1284 152.805 43.0998 153.693C41.8145 153.931 40.2846 154.064 38.5101 154.092C36.7121 154.073 34.8252 153.962 32.8494 153.761C30.8502 153.511 28.8881 153.154 26.9631 152.69L26.7031 153.442C28.3376 154.167 30.0003 155.042 31.6914 156.068C33.359 157.045 34.9179 158.105 36.3679 159.248C37.818 160.39 39.0345 161.513 40.0175 162.614C40.2663 163.983 40.4043 165.615 40.4316 167.51C40.4231 169.392 40.3119 171.339 40.0982 173.35C39.8486 175.349 39.5108 177.198 39.0847 178.895L39.8371 179.155C40.514 177.544 41.3651 175.893 42.3906 174.202C43.416 172.511 44.5062 170.923 45.6613 169.437C46.8163 167.951 47.9447 166.717 49.0463 165.734C50.428 165.449 52.0537 165.329 53.9233 165.373C55.7695 165.369 57.6922 165.492 59.6914 165.742C61.6548 165.979 63.5212 166.323 65.2905 166.774Z" fill="white"/>
<path d="M58.4073 113.364C59.079 112.264 59.8291 111.545 60.6574 111.207C61.4533 110.849 62.1748 110.868 62.8218 111.263C63.2424 111.52 63.5255 111.893 63.6712 112.381C63.8366 112.838 63.7909 113.276 63.534 113.697C63.3167 114.053 63.1002 114.298 62.8846 114.433C62.6367 114.548 62.3043 114.656 61.8874 114.757C61.3987 114.902 61.0204 115.049 60.7527 115.196C60.485 115.344 60.2227 115.628 59.9659 116.048C59.4719 116.857 59.3051 117.821 59.4653 118.94C59.6129 120.008 60.066 121.084 60.8246 122.169C61.6029 123.222 62.6229 124.134 63.8846 124.904L75.9188 132.254C76.9863 132.906 77.9675 132.973 78.8622 132.453C79.7246 131.914 80.7801 130.804 82.0285 129.124L82.7079 129.538L75.832 140.796L75.1526 140.381C75.8136 139.008 76.0855 137.908 75.9685 137.082C75.8192 136.236 75.2592 135.516 74.2887 134.923L58.3725 125.202C57.3373 124.57 56.5367 124.281 55.9707 124.335C55.392 124.337 54.8953 124.678 54.4803 125.357C54.2235 125.777 53.9487 126.409 53.656 127.252L52.9767 126.837L54.3469 120.012L54.7618 119.333L60.4878 122.83C58.9726 121.238 58.0395 119.602 57.6887 117.922C57.3379 116.242 57.5774 114.723 58.4073 113.364Z" fill="white"/>
<path d="M91.6165 118.812C90.0549 120.862 88.206 122.289 86.0697 123.093C83.9033 123.873 81.6506 124.016 79.3115 123.521C76.9422 123.003 74.6719 121.918 72.5005 120.264C70.0878 118.427 68.268 116.375 67.0412 114.106C65.8071 111.785 65.2479 109.453 65.3636 107.111C65.4792 104.77 66.2948 102.603 67.8105 100.613C68.9817 99.0749 70.3691 98.035 71.9728 97.4932C73.5994 96.9213 75.2757 96.816 77.0016 97.1773C78.7276 97.5387 80.3445 98.2934 81.8525 99.4417C82.3953 99.855 82.791 100.18 83.0394 100.417L71.7065 115.3C72.0454 115.606 72.6069 116.057 73.3911 116.654C76.4371 118.974 79.5108 120.099 82.6121 120.031C85.7063 119.91 88.2868 118.492 90.3536 115.777C91.341 114.481 91.8144 112.983 91.7737 111.284C91.7259 109.533 91.1575 107.933 90.0688 106.484L90.6523 105.999C92.4203 107.87 93.398 109.996 93.5853 112.378C93.7655 114.707 93.1092 116.851 91.6165 118.812ZM80.126 102.272C78.1067 100.544 76.0016 99.6795 73.8105 99.6787C71.6195 99.6779 69.858 100.552 68.526 102.301C67.1022 104.171 66.5988 106.146 67.0158 108.227C67.4328 110.307 68.7026 112.394 70.8254 114.486L80.126 102.272Z" fill="white"/>
<path d="M102.317 106.677C100.806 108.222 99.046 109.045 97.0367 109.147C95.0003 109.223 93.2099 108.506 91.6655 106.995C89.6063 104.98 88.6439 102.765 88.7785 100.351C88.913 97.9374 90.1835 95.2296 92.5901 92.228L96.003 88.0895L94.296 86.4194C92.4265 84.5901 90.4991 83.6059 88.514 83.4667C86.5018 83.301 84.7269 84.0039 83.1893 85.5754C81.8107 86.9843 81.1022 88.386 81.0638 89.7803C81.0254 91.1746 81.4668 92.3224 82.388 93.2238C82.5506 93.3828 82.821 93.5943 83.1991 93.8583C83.6038 94.0951 83.9145 94.3196 84.1313 94.5316C84.5919 94.9823 84.8248 95.4489 84.8301 95.9313C84.8618 96.3867 84.6789 96.8176 84.2812 97.224C83.9366 97.5762 83.4963 97.7552 82.9602 97.7611C82.4507 97.7398 81.9114 97.4508 81.3424 96.8941C80.5019 96.0187 79.8864 94.8862 79.496 93.4965C79.1321 92.0798 79.182 90.5111 79.6457 88.7905C80.136 87.0428 81.203 85.329 82.8466 83.6491C84.8084 81.6441 87.0095 80.6954 89.45 80.8028C91.917 80.8831 94.2749 82.0235 96.5237 84.2238L107.66 95.1196C108.147 95.5967 108.633 95.8595 109.116 95.9079C109.572 95.9297 109.985 95.7509 110.356 95.3716C110.913 94.8026 110.997 93.8769 110.608 92.5945L111.328 92.265C111.852 93.6264 112.038 94.7636 111.888 95.6766C111.79 96.589 111.516 97.2756 111.066 97.7362C110.35 98.4677 109.483 98.8391 108.464 98.8502C107.445 98.8077 106.475 98.3357 105.554 97.4344L103.156 95.0882C104.253 97.3816 104.732 99.5476 104.594 101.586C104.455 103.571 103.696 105.268 102.317 106.677ZM93.3605 103.88C94.5526 105.046 95.926 105.621 97.4805 105.604C99.0345 105.534 100.368 104.929 101.482 103.792C102.542 102.708 103.117 101.334 103.206 99.6715C103.294 97.9549 102.939 96.0958 102.14 94.0941L97.0596 89.1234L93.9278 93.2186C92.2629 95.408 91.3865 97.3878 91.2986 99.1579C91.2101 100.874 91.8974 102.448 93.3605 103.88Z" fill="white"/>
<path d="M115.296 67.4766C112.948 66.0509 110.813 65.3775 108.888 65.4564C106.941 65.5056 105.137 66.1915 103.476 67.5142C102.142 68.577 101.245 69.9456 100.786 71.6201C100.356 73.2709 100.397 75.0558 100.908 76.975C101.425 78.8409 102.38 80.6485 103.774 82.3978C105.285 84.2953 107.058 85.7909 109.093 86.8844C111.103 87.9482 113.165 88.438 115.279 88.3536C117.393 88.2691 119.339 87.5184 121.118 86.1013C122.511 84.9912 123.417 83.5427 123.835 81.7557C124.283 79.9451 124.154 78.1096 123.447 76.2492L124.131 75.9221C125.37 78.3282 125.782 80.7622 125.368 83.2241C124.931 85.6563 123.69 87.6873 121.644 89.3169C119.746 90.8285 117.622 91.721 115.271 91.9944C112.95 92.2441 110.66 91.8634 108.401 90.8523C106.141 89.8412 104.173 88.2831 102.496 86.178C100.677 83.895 99.4393 81.4889 98.7815 78.9597C98.1237 76.4305 98.1079 74.0684 98.734 71.8733C99.3366 69.6486 100.527 67.8277 102.306 66.4106C103.314 65.6076 104.272 65.0146 105.178 64.6317C106.061 64.2191 106.962 63.8895 107.88 63.6427C108.579 63.4252 109.002 63.2573 109.151 63.1392C109.358 62.9739 109.424 62.752 109.347 62.4736C109.301 62.1716 109.103 61.7716 108.755 61.2736L109.289 60.8485L115.918 66.9806L115.296 67.4766Z" fill="white"/>
<path d="M137.888 73.8087C138.021 74.2201 138.046 74.8144 137.964 75.5916C137.914 76.3481 137.686 77.108 137.278 77.8713C136.923 78.6457 136.365 79.2813 135.603 79.7781C133.888 80.8958 132.182 81.1936 130.484 80.6714C128.786 80.1492 127.254 78.8401 125.888 76.7442L115.113 60.2153L111.16 62.7924L110.725 62.1255C112.265 60.6695 113.153 59.1173 113.391 57.4691C113.629 55.8209 113.271 53.8826 112.316 51.6543L112.983 51.2196L116.864 57.1738L123.819 52.6406L124.688 53.9743L117.733 58.5075L128.476 74.9889C129.47 76.5132 130.59 77.5025 131.837 77.957C133.094 78.359 134.342 78.1564 135.581 77.3491C136.247 76.9144 136.694 76.4196 136.921 75.8647C137.147 75.3098 137.301 74.6438 137.383 73.8666L137.888 73.8087Z" fill="white"/>
<path d="M166.026 59.0092C166.496 60.0863 167.115 60.7468 167.883 60.9907C168.686 61.2194 169.855 61.1024 171.39 60.6395L171.708 61.3692L161.076 66.0071L160.758 65.2775C162.142 64.4672 163.005 63.6975 163.349 62.9686C163.727 62.2245 163.682 61.3139 163.212 60.2369L157.164 46.3737C156.24 44.2543 155.066 42.8433 153.643 42.1407C152.22 41.4381 150.622 41.4733 148.85 42.2462C147.426 42.8677 146.243 43.9007 145.301 45.3452C144.36 46.7898 143.548 48.674 142.867 50.9979L149.505 66.2161C149.975 67.2932 150.594 67.9537 151.362 68.1976C152.165 68.4264 153.334 68.3093 154.869 67.8465L155.187 68.5761L144.555 73.214L144.237 72.4844C145.586 71.6893 146.432 70.9272 146.776 70.1983C147.154 69.4542 147.109 68.5436 146.639 67.4665L139.204 50.4243C138.719 49.3124 138.23 48.6163 137.735 48.3357C137.26 48.0053 136.658 47.9992 135.928 48.3175C135.476 48.5146 134.889 48.8742 134.166 49.3966L133.847 48.6669L138.886 43.8635L139.615 43.5452L142.321 49.7471C143.471 44.3242 145.592 40.9383 148.684 39.5893C151.012 38.5738 153.177 38.5599 155.179 39.5474C157.166 40.5003 158.751 42.3317 159.933 45.0418L166.026 59.0092Z" fill="white"/>
<path d="M176.932 61.5705C174.851 62.1515 172.915 61.9835 171.124 61.0666C169.323 60.1132 168.132 58.5959 167.551 56.5148C166.776 53.74 167.051 51.3412 168.376 49.3186C169.7 47.2959 172.155 45.5873 175.741 44.1928L180.766 42.3176L180.124 40.0174C179.421 37.4982 178.245 35.6816 176.596 34.5677C174.937 33.4173 173.048 33.1376 170.931 33.7288C169.032 34.2588 167.717 35.1177 166.986 36.3057C166.255 37.4936 166.063 38.7083 166.41 39.9497C166.471 40.1687 166.599 40.4871 166.794 40.9049C167.026 41.3124 167.183 41.6623 167.264 41.9543C167.438 42.575 167.406 43.0955 167.169 43.5159C166.969 43.926 166.595 44.2075 166.047 44.3604C165.572 44.4929 165.101 44.4275 164.634 44.1643C164.204 43.891 163.882 43.3709 163.668 42.6042C163.378 41.4256 163.412 40.1371 163.769 38.7386C164.163 37.3299 164.991 35.9968 166.254 34.7391C167.553 33.4713 169.334 32.5215 171.598 31.8896C174.3 31.1353 176.68 31.4154 178.739 32.7296C180.835 34.0337 182.306 36.2009 183.152 39.2313L187.341 54.2373C187.524 54.8945 187.813 55.3648 188.207 55.6484C188.591 55.8955 189.038 55.9477 189.549 55.805C190.316 55.5909 190.852 54.8314 191.157 53.5263L191.945 53.6014C191.717 55.0423 191.31 56.1203 190.722 56.8353C190.182 57.5766 189.601 58.0339 188.98 58.2071C187.994 58.4823 187.058 58.3699 186.17 57.8698C185.309 57.3231 184.706 56.429 184.359 55.1876L183.457 51.9564C183.259 54.491 182.591 56.6062 181.45 58.302C180.336 59.951 178.83 61.0405 176.932 61.5705ZM170.577 54.6665C171.025 56.273 171.927 57.4578 173.281 58.2211C174.662 58.9376 176.119 59.0818 177.652 58.6538C179.113 58.2461 180.298 57.3447 181.207 55.9495C182.142 54.5077 182.765 52.7203 183.075 50.5873L181.164 43.7415L176.403 45.7199C173.866 46.7823 172.117 48.0578 171.155 49.5463C170.219 50.9882 170.026 52.6949 170.577 54.6665Z" fill="white"/>
<path d="M203.352 52.1703C203.312 52.6006 203.101 53.157 202.72 53.8393C202.377 54.5151 201.867 55.1237 201.192 55.6651C200.561 56.2373 199.798 56.6017 198.902 56.7585C196.885 57.1112 195.199 56.7134 193.844 55.5651C192.489 54.4169 191.596 52.6105 191.164 50.1461L187.765 30.7108L183.116 31.524L182.979 30.7398C184.967 30.0072 186.395 28.9301 187.262 27.5084C188.13 26.0868 188.563 24.1639 188.562 21.7396L189.346 21.6025L190.571 28.6037L198.748 27.1732L199.023 28.7415L190.845 30.1719L194.235 49.5512C194.549 51.3435 195.189 52.6939 196.156 53.6022C197.154 54.4667 198.381 54.7715 199.837 54.5168C200.621 54.3796 201.227 54.1006 201.653 53.6796C202.08 53.2586 202.484 52.707 202.865 52.0246L203.352 52.1703Z" fill="white"/>
<path d="M207.571 50.4418C207.698 51.61 208.091 52.4253 208.751 52.8876C209.449 53.3457 210.6 53.5833 212.203 53.6002L212.289 54.3916L200.757 55.6412L200.671 54.8498C202.196 54.494 203.231 54.0196 203.777 53.4266C204.36 52.8296 204.589 51.9469 204.462 50.7787L202.459 32.2937C202.328 31.0877 202.069 30.277 201.681 29.8615C201.326 29.4043 200.753 29.2185 199.962 29.3043C199.472 29.3574 198.804 29.5251 197.957 29.8074L197.872 29.016L204.115 25.9374L204.907 25.8516L207.571 50.4418ZM199.683 18.811C199.601 18.0573 199.795 17.3881 200.266 16.8033C200.774 16.2144 201.424 15.8771 202.215 15.7914C202.969 15.7097 203.619 15.9061 204.166 16.3806C204.751 16.8511 205.084 17.4631 205.166 18.2169C205.248 18.9706 205.053 19.6398 204.583 20.2246C204.146 20.7676 203.551 21.08 202.797 21.1616C202.006 21.2474 201.301 21.0759 200.682 20.6473C200.097 20.1768 199.764 19.5648 199.683 18.811Z" fill="white"/>
<path d="M212.951 30.2326C212.092 28.0439 210.733 26.9034 208.874 26.8112L208.865 26.0152L219.838 25.8881L219.848 26.6841C217.309 26.8272 216.048 27.581 216.064 28.9456C216.068 29.2867 216.167 29.7026 216.363 30.1931L224.154 49.8915L231.771 30.0147C231.955 29.5197 232.044 29.1017 232.041 28.7606C232.025 27.396 230.746 26.6716 228.205 26.5873L228.196 25.7913L237.066 25.6886L237.075 26.4846C235.56 26.6158 234.361 27.786 233.476 29.9949L223.758 55.0138L222.962 55.0231L212.951 30.2326Z" fill="white"/>
<path d="M246.188 56.4472C243.628 56.1498 241.458 55.2872 239.677 53.8592C237.901 52.3936 236.629 50.5286 235.862 48.2643C235.099 45.9623 234.875 43.4558 235.19 40.7447C235.54 37.7325 236.377 35.1203 237.703 32.9082C239.07 30.6629 240.791 28.9928 242.864 27.898C244.938 26.8031 247.217 26.4 249.702 26.6887C251.622 26.9117 253.224 27.5748 254.508 28.678C255.83 29.7855 256.775 31.1737 257.345 32.8426C257.914 34.5116 258.089 36.2874 257.871 38.17C257.792 38.8478 257.714 39.3539 257.637 39.6884L239.055 37.5302C238.965 37.9776 238.863 38.6909 238.749 39.6699C238.308 43.4729 238.907 46.6908 240.547 49.3237C242.23 51.9233 244.765 53.4199 248.154 53.8135C249.773 54.0015 251.303 53.6449 252.743 52.7437C254.226 51.8092 255.312 50.5043 256.003 48.8291L256.718 49.0839C256.01 51.5585 254.68 53.4838 252.727 54.8597C250.815 56.2023 248.636 56.7315 246.188 56.4472ZM254.555 38.1284C255.012 35.5102 254.682 33.2585 253.566 31.3734C252.449 29.4882 250.799 28.4188 248.615 28.1652C246.28 27.894 244.324 28.4683 242.748 29.8879C241.171 31.3075 240.023 33.464 239.306 36.3572L254.555 38.1284Z" fill="white"/>
<path d="M281.839 67.0231C282.331 64.5793 282.212 61.7096 281.483 58.414C280.789 55.1314 279.325 51.748 277.09 48.2637C274.832 44.7308 272.348 42.1446 269.639 40.5051L270.461 38.2629C273.663 38.6699 277.011 38.4036 280.504 37.4641C283.998 36.5246 287.202 35.0548 290.116 33.0547C293.042 31.019 295.294 28.6754 296.872 26.024L299.114 26.8462C298.769 28.7787 298.738 30.8464 299.02 33.0494C299.338 35.2655 299.949 37.5082 300.853 39.7777C301.77 42.0115 302.906 44.144 304.26 46.175C306.341 49.1989 308.741 51.5728 311.46 53.2966L310.638 55.5387C308.501 55.1994 306.161 55.2498 303.618 55.6899C301.11 56.143 298.666 56.8619 296.286 57.8465C293.907 58.8311 291.815 60.0222 290.01 61.4196C287.248 63.5561 285.272 65.698 284.081 67.8453L281.839 67.0231ZM283.056 66.0159L283.803 66.29C284.66 64.5046 285.623 62.7583 286.693 61.0512C287.812 59.3216 288.932 57.7539 290.053 56.3481C291.21 54.9554 292.28 53.8539 293.263 53.0436C294.721 52.8111 296.391 52.7168 298.272 52.7608C300.19 52.8177 302.127 52.9832 304.086 53.2573C306.08 53.5444 307.88 53.9217 309.485 54.3891L309.759 53.6418C308.245 52.9252 306.617 52.0254 304.874 50.9422C303.18 49.8365 301.584 48.6858 300.084 47.49C298.598 46.2585 297.42 45.1202 296.552 44.0751C296.338 42.7855 296.234 41.2534 296.239 39.4787C296.292 37.6814 296.438 35.7969 296.676 33.8253C296.964 31.831 297.357 29.876 297.858 27.9601L297.111 27.686C296.355 29.3065 295.449 30.9526 294.392 32.6241C293.383 34.273 292.294 35.8117 291.124 37.24C289.955 38.6683 288.81 39.8635 287.69 40.8256C286.316 41.0486 284.682 41.156 282.788 41.1476C280.906 41.1037 278.962 40.956 276.954 40.7045C274.96 40.4174 273.118 40.0448 271.429 39.5869L271.155 40.3343C272.753 41.0413 274.388 41.9234 276.059 42.9804C277.731 44.0375 279.298 45.1574 280.762 46.3402C282.226 47.5229 283.439 48.6743 284.401 49.7942C284.66 51.181 284.75 52.8086 284.67 54.6771C284.639 56.523 284.48 58.4431 284.193 60.4373C283.919 62.3959 283.54 64.2554 283.056 66.0159Z" fill="white"/>
<path d="M335.59 62.4316L328.97 58.2194L316.883 77.2165C316.252 78.208 316.198 79.1398 316.722 80.0119C317.245 80.8841 318.335 81.9597 319.993 83.2388L319.565 83.9104L308.388 76.7985L308.815 76.1268C310.089 76.6675 311.151 76.9393 312.003 76.9421C312.887 76.9653 313.634 76.4972 314.244 75.5377L326.332 56.5406L322.254 53.9461L323.109 52.6028L327.186 55.1973L328.804 52.6548C330.513 49.9683 332.482 48.3226 334.709 47.7178C336.988 47.1013 339.263 47.5154 341.534 48.9602C342.845 49.7945 343.892 50.7974 344.674 51.969C345.456 53.1406 345.552 54.1901 344.962 55.1176C344.656 55.5973 344.22 55.859 343.653 55.9027C343.119 55.9667 342.668 55.7923 342.302 55.3795C341.958 55.0713 341.736 54.7501 341.634 54.4157C341.553 54.0494 341.538 53.6133 341.591 53.1074C341.628 52.4126 341.553 51.8253 341.364 51.3456C341.195 50.834 340.727 50.3339 339.959 49.8456C338.68 49.0316 337.363 48.9125 336.008 49.4882C334.653 50.064 333.376 51.2953 332.175 53.1822L329.825 56.8761L336.445 61.0884L335.59 62.4316Z" fill="white"/>
<path d="M329.496 85.7911C328.794 86.7338 328.528 87.5991 328.698 88.3869C328.898 89.1974 329.58 90.1539 330.744 91.2566L330.268 91.8951L320.963 84.9694L321.439 84.3309C322.799 85.1068 323.88 85.4629 324.684 85.3993C325.517 85.3584 326.285 84.8666 326.987 83.9239L345.218 59.4301C345.919 58.4874 346.28 57.7166 346.301 57.1176C346.352 56.5412 346.043 56.004 345.374 55.5061C345.009 55.2345 344.42 54.9145 343.608 54.546L344.083 53.9074L350.754 55.8959L351.393 56.3711L329.496 85.7911Z" fill="white"/>
<path d="M346.42 107.671C345.609 106.928 345.196 106.061 345.179 105.069C345.216 104.075 345.645 103.13 346.464 102.236L348.308 100.224C345.437 100.832 343.056 100.99 341.165 100.696C339.302 100.429 337.728 99.7061 336.443 98.5281C334.57 96.8122 333.666 94.8528 333.731 92.65C333.824 90.4727 334.844 88.3221 336.79 86.1981L346.624 75.4665C347.418 74.6001 347.856 73.8701 347.937 73.2763C348.019 72.6825 347.766 72.1166 347.179 71.5788C346.816 71.2459 346.249 70.8548 345.478 70.4055L346.016 69.8186L352.45 72.4757L353.037 73.0135L339.361 87.9372C337.85 89.5861 337.117 91.2278 337.161 92.8625C337.234 94.5228 338.025 96.0444 339.534 97.4273C340.68 98.4774 341.969 99.1187 343.401 99.3513C344.861 99.6096 346.791 99.579 349.192 99.2596L359.871 87.6057C360.665 86.7394 361.103 86.0093 361.184 85.4155C361.266 84.8217 361.013 84.2559 360.426 83.7181C360.091 83.4107 359.538 83.0324 358.767 82.5831L359.305 81.9962L365.739 84.6533L366.326 85.1911L348.924 104.181C348.488 104.656 348.254 105.136 348.222 105.62C348.217 106.13 348.397 106.552 348.76 106.885C349.347 107.422 350.289 107.489 351.586 107.083L351.897 107.754C350.581 108.348 349.465 108.584 348.547 108.463C347.604 108.37 346.895 108.106 346.42 107.671Z" fill="white"/>
<path d="M359.918 117.98C359.529 118.168 358.944 118.276 358.163 118.302C357.406 118.357 356.622 118.236 355.81 117.938C354.994 117.693 354.287 117.228 353.69 116.542C352.346 114.998 351.815 113.349 352.098 111.596C352.38 109.842 353.465 108.143 355.352 106.501L370.233 93.5451L367.134 89.9857L367.734 89.463C369.389 90.7865 371.049 91.4521 372.714 91.4598C374.38 91.4675 376.25 90.8446 378.325 89.5909L378.847 90.1913L373.487 94.8583L378.938 101.119L377.737 102.165L372.286 95.9037L357.448 108.822C356.076 110.017 355.251 111.263 354.973 112.56C354.749 113.861 355.122 115.069 356.092 116.184C356.615 116.785 357.167 117.159 357.748 117.306C358.329 117.454 359.01 117.514 359.791 117.488L359.918 117.98Z" fill="white"/>
<path d="M367.216 128.173C366.815 128.332 366.223 128.397 365.442 128.366C364.684 128.366 363.911 128.188 363.122 127.832C362.326 127.529 361.655 127.013 361.11 126.285C359.881 124.648 359.472 122.965 359.881 121.236C360.291 119.508 361.496 117.893 363.498 116.392L379.282 104.554L376.451 100.778L377.087 100.3C378.642 101.741 380.249 102.526 381.909 102.654C383.569 102.783 385.48 102.298 387.641 101.199L388.118 101.836L382.432 106.1L387.413 112.741L386.139 113.697L381.159 107.055L365.42 118.859C363.964 119.951 363.05 121.134 362.679 122.407C362.361 123.689 362.645 124.921 363.532 126.103C364.009 126.74 364.533 127.153 365.101 127.343C365.67 127.532 366.345 127.642 367.125 127.673L367.216 128.173Z" fill="white"/>
<path d="M368.867 138.298C367.523 136.098 366.865 133.857 366.893 131.575C366.953 129.273 367.638 127.122 368.949 125.123C370.291 123.103 372.127 121.382 374.457 119.96C377.045 118.379 379.618 117.429 382.177 117.11C384.788 116.803 387.164 117.129 389.303 118.087C391.443 119.046 393.165 120.592 394.469 122.727C395.477 124.377 395.942 126.048 395.864 127.739C395.806 129.462 395.296 131.062 394.332 132.539C393.369 134.016 392.078 135.248 390.461 136.236C389.878 136.592 389.432 136.842 389.121 136.988L379.37 121.023C378.962 121.228 378.338 121.587 377.496 122.101C374.229 124.096 372.064 126.551 371.001 129.466C369.991 132.393 370.375 135.312 372.153 138.223C373.002 139.614 374.226 140.599 375.823 141.178C377.473 141.77 379.17 141.822 380.915 141.333L381.155 142.053C378.77 143.021 376.434 143.16 374.146 142.469C371.911 141.791 370.151 140.401 368.867 138.298ZM388.45 133.599C390.794 132.346 392.364 130.698 393.161 128.657C393.957 126.616 393.782 124.657 392.636 122.781C391.411 120.775 389.754 119.589 387.664 119.222C385.575 118.855 383.169 119.28 380.448 120.498L388.45 133.599Z" fill="white"/>
<path d="M405.882 144.97C406.436 146.133 406.629 147.154 406.46 148.033C406.325 148.895 405.915 149.489 405.231 149.815C404.786 150.028 404.319 150.061 403.83 149.916C403.358 149.806 403.015 149.528 402.803 149.083C402.624 148.707 402.537 148.391 402.541 148.137C402.58 147.867 402.671 147.529 402.815 147.125C402.96 146.636 403.043 146.239 403.066 145.934C403.089 145.63 402.994 145.255 402.782 144.81C402.374 143.955 401.658 143.288 400.632 142.811C399.657 142.352 398.508 142.144 397.185 142.187C395.878 142.264 394.557 142.621 393.223 143.257L380.494 149.325C379.365 149.863 378.774 150.649 378.72 151.682C378.701 152.699 379.055 154.189 379.781 156.153L379.062 156.495L373.385 144.588L374.104 144.245C374.893 145.549 375.666 146.377 376.423 146.73C377.213 147.067 378.122 146.991 379.148 146.502L395.983 138.476C397.078 137.954 397.758 137.442 398.021 136.938C398.336 136.452 398.322 135.85 397.979 135.131C397.767 134.687 397.388 134.111 396.842 133.406L397.56 133.063L402.53 137.938L402.872 138.657L396.816 141.544C398.977 141.144 400.857 141.255 402.456 141.879C404.055 142.503 405.197 143.533 405.882 144.97Z" fill="white"/>
<path d="M386.153 186.517C388.469 185.594 390.807 183.926 393.169 181.514C395.539 179.14 397.572 176.064 399.269 172.289C400.994 168.467 401.803 164.974 401.696 161.809L404.023 161.273C405.432 164.177 407.484 166.835 410.18 169.247C412.876 171.66 415.857 173.54 419.124 174.887C422.429 176.226 425.622 176.832 428.705 176.705L429.241 179.032C427.434 179.798 425.685 180.902 423.994 182.342C422.312 183.819 420.768 185.557 419.361 187.554C417.991 189.542 416.826 191.659 415.865 193.903C414.469 197.298 413.793 200.605 413.835 203.824L411.508 204.361C410.624 202.386 409.304 200.454 407.545 198.564C405.795 196.711 403.858 195.058 401.733 193.602C399.608 192.147 397.467 191.046 395.311 190.298C392.012 189.153 389.139 188.668 386.689 188.844L386.153 186.517ZM387.661 186.986L387.84 187.761C389.804 187.503 391.793 187.356 393.807 187.319C395.867 187.311 397.792 187.392 399.582 187.563C401.38 187.771 402.887 188.065 404.103 188.446C405.095 189.54 406.086 190.887 407.077 192.487C408.077 194.123 408.998 195.837 409.838 197.627C410.687 199.454 411.355 201.167 411.84 202.767L412.616 202.588C412.389 200.929 412.253 199.074 412.208 197.022C412.208 194.999 412.3 193.033 412.482 191.124C412.701 189.206 413.011 187.598 413.412 186.3C414.375 185.416 415.601 184.492 417.09 183.526C418.624 182.588 420.282 181.681 422.064 180.803C423.891 179.954 425.744 179.216 427.622 178.588L427.443 177.812C425.673 178.065 423.799 178.205 421.822 178.233C419.89 178.29 418.006 178.219 416.17 178.019C414.335 177.82 412.708 177.514 411.291 177.102C410.353 176.074 409.37 174.764 408.342 173.172C407.351 171.573 406.412 169.863 405.526 168.045C404.677 166.218 403.982 164.472 403.443 162.807L402.667 162.986C402.948 164.71 403.103 166.561 403.131 168.539C403.159 170.516 403.078 172.441 402.887 174.314C402.696 176.186 402.395 177.831 401.983 179.249C400.962 180.223 399.648 181.187 398.04 182.142C396.477 183.125 394.782 184.041 392.955 184.89C391.165 185.73 389.4 186.429 387.661 186.986Z" fill="white"/>
</svg>
