<svg width="427" height="426" viewBox="0 0 427 426" fill="none" xmlns="http://www.w3.org/2000/svg">
<path d="M115.492 186.552C130.139 131.889 186.325 99.4499 240.988 114.097C295.651 128.743 328.09 184.93 313.443 239.592C298.796 294.255 242.61 326.694 187.947 312.047C133.285 297.4 100.846 241.214 115.492 186.552Z" fill="white"/>
<path d="M74.0937 159.259C74.4799 158.077 75.0242 157.235 75.7267 156.734C76.3944 156.221 77.0759 156.078 77.7712 156.305C78.2231 156.453 78.5718 156.74 78.8172 157.167C79.0739 157.558 79.1285 157.98 78.9808 158.432C78.8558 158.814 78.7071 159.093 78.5347 159.267C78.3275 159.43 78.0394 159.606 77.6704 159.793C77.244 160.038 76.9215 160.26 76.7029 160.458C76.4843 160.656 76.3012 160.981 76.1536 161.433C75.8696 162.302 75.9272 163.244 76.3265 164.259C76.7023 165.228 77.3669 166.138 78.3203 166.988C79.285 167.804 80.4453 168.433 81.801 168.876L94.7327 173.101C95.8799 173.476 96.8157 173.32 97.5403 172.634C98.23 171.936 98.9742 170.659 99.7727 168.804L100.503 169.043L96.5498 181.14L95.8198 180.901C96.1351 179.465 96.146 178.373 95.8524 177.623C95.5241 176.861 94.8385 176.31 93.7956 175.969L76.6924 170.381C75.58 170.017 74.7641 169.924 74.2447 170.1C73.7019 170.231 73.3112 170.661 73.0727 171.391C72.925 171.843 72.8075 172.497 72.72 173.353L71.99 173.115L71.7594 166.403L71.9979 165.673L78.1509 167.683C76.3746 166.526 75.135 165.197 74.4322 163.698C73.7294 162.199 73.6166 160.719 74.0937 159.259Z" fill="white"/>
<path d="M106.747 157.483C105.705 159.579 104.269 161.193 102.439 162.325C100.593 163.408 98.5086 163.943 96.1861 163.931C93.8472 163.87 91.4499 163.229 88.9943 162.007C86.3422 160.687 84.2374 159.047 82.6799 157.088C81.0897 155.112 80.1616 152.996 79.8956 150.739C79.5968 148.466 79.9932 146.233 81.0848 144.039C82.1276 141.944 83.5801 140.338 85.4425 139.223C87.2721 138.091 89.3564 137.555 91.6953 137.616C94.0178 137.628 96.4068 138.245 98.8624 139.467C101.547 140.803 103.668 142.451 105.226 144.41C106.783 146.37 107.712 148.486 108.01 150.759C108.276 153.015 107.855 155.257 106.747 157.483ZM88.005 157.838C90.4606 159.06 92.9072 159.808 95.3446 160.081C97.7821 160.354 99.9405 160.121 101.82 159.382C103.699 158.642 105.055 157.437 105.886 155.768C106.57 154.393 106.78 152.945 106.515 151.424C106.218 149.887 105.504 148.449 104.372 147.11C103.225 145.722 101.734 144.572 99.9009 143.66C97.4452 142.438 94.9987 141.69 92.5612 141.417C90.091 141.127 87.9081 141.369 86.0123 142.141C84.1329 142.88 82.7777 144.085 81.9468 145.755C81.2462 147.163 81.0446 148.635 81.3419 150.172C81.6228 151.66 82.3452 153.081 83.509 154.437C84.6728 155.792 86.1715 156.926 88.005 157.838Z" fill="white"/>
<path d="M121.272 126.881C122.176 127.564 123.009 127.827 123.77 127.669C124.554 127.481 125.481 126.83 126.553 125.715L127.166 126.178L120.42 135.107L119.807 134.644C120.587 133.308 120.949 132.252 120.894 131.477C120.86 130.672 120.391 129.928 119.486 129.245L107.843 120.449C106.063 119.104 104.409 118.473 102.88 118.555C101.351 118.638 100.024 119.423 98.8998 120.911C97.9959 122.108 97.4899 123.536 97.3817 125.196C97.2735 126.856 97.4824 128.824 98.0084 131.101L110.789 140.756C111.694 141.44 112.527 141.702 113.288 141.544C114.071 141.357 114.999 140.705 116.071 139.59L116.684 140.053L109.938 148.982L109.325 148.519C110.083 147.212 110.434 146.171 110.378 145.396C110.344 144.591 109.875 143.847 108.971 143.164L94.6577 132.351C93.7239 131.645 92.9828 131.292 92.4342 131.29C91.8785 131.237 91.3692 131.516 90.9062 132.129C90.6197 132.508 90.2958 133.089 89.9347 133.87L89.3219 133.407L91.2863 126.985L91.7492 126.372L96.9579 130.307C95.3593 125.203 95.5409 121.353 97.5029 118.756C98.9799 116.801 100.794 115.765 102.945 115.648C105.066 115.509 107.265 116.3 109.541 118.019L121.272 126.881Z" fill="white"/>
<path d="M139.436 110.713C140.193 111.557 140.96 111.974 141.738 111.964C142.542 111.93 143.577 111.468 144.843 110.578L145.356 111.15L137.026 118.624L136.514 118.052C137.535 116.891 138.092 115.924 138.186 115.152C138.306 114.355 137.988 113.535 137.231 112.692L127.486 101.831C125.996 100.171 124.492 99.2346 122.976 99.023C121.459 98.8115 120.007 99.3285 118.619 100.574C117.503 101.576 116.733 102.881 116.309 104.489C115.885 106.098 115.714 108.07 115.795 110.405L126.493 122.327C127.25 123.171 128.017 123.588 128.795 123.578C129.599 123.544 130.634 123.082 131.9 122.192L132.413 122.764L124.084 130.238L123.571 129.666C124.564 128.529 125.108 127.574 125.202 126.802C125.323 126.006 125.004 125.186 124.247 124.342L112.267 110.991C111.485 110.12 110.826 109.631 110.287 109.524C109.752 109.366 109.199 109.543 108.627 110.056C108.273 110.373 107.844 110.881 107.34 111.579L106.828 111.007L109.984 105.079L110.556 104.566L114.916 109.425C114.323 104.11 115.238 100.365 117.66 98.1915C119.484 96.555 121.462 95.8852 123.596 96.1819C125.705 96.4515 127.712 97.6478 129.617 99.7709L139.436 110.713Z" fill="white"/>
<path d="M149.67 110.67C147.9 111.771 146.062 112.139 144.155 111.774C142.23 111.378 140.716 110.295 139.616 108.525C138.148 106.164 137.754 103.869 138.434 101.637C139.113 99.4058 140.925 97.1596 143.869 94.8986L148.016 91.803L146.799 89.8464C145.467 87.7035 143.886 86.3392 142.058 85.7535C140.21 85.1367 138.386 85.3884 136.584 86.5085C134.969 87.5127 133.984 88.6637 133.628 89.9615C133.273 91.2594 133.423 92.4362 134.08 93.4922C134.195 93.6785 134.4 93.9387 134.694 94.2728C135.019 94.5875 135.259 94.8691 135.413 95.1176C135.742 95.6456 135.853 96.1362 135.747 96.5895C135.672 97.0235 135.402 97.3854 134.936 97.675C134.533 97.9261 134.079 97.9929 133.575 97.8754C133.103 97.7387 132.663 97.3442 132.258 96.692C131.671 95.6788 131.354 94.4764 131.307 93.0846C131.291 91.6735 131.697 90.2149 132.526 88.7088C133.387 87.1834 134.779 85.822 136.705 84.6247C139.003 83.1957 141.284 82.8113 143.546 83.4717C145.839 84.1127 147.788 85.7221 149.39 88.2998L157.327 101.064C157.675 101.623 158.07 101.981 158.511 102.137C158.933 102.262 159.362 102.189 159.797 101.919C160.449 101.513 160.74 100.665 160.669 99.374L161.419 99.2303C161.598 100.626 161.513 101.735 161.162 102.556C160.861 103.389 160.447 103.969 159.919 104.297C159.081 104.819 158.183 104.968 157.226 104.745C156.281 104.471 155.48 103.807 154.823 102.751L153.114 100.002C153.616 102.403 153.569 104.543 152.971 106.421C152.386 108.25 151.285 109.666 149.67 110.67ZM141.918 105.995C142.768 107.361 143.923 108.215 145.384 108.555C146.856 108.846 148.245 108.585 149.549 107.774C150.791 107.002 151.645 105.846 152.11 104.309C152.586 102.72 152.68 100.897 152.39 98.8374L148.769 93.0142L144.895 96.1337C142.833 97.8037 141.557 99.458 141.069 101.097C140.592 102.685 140.875 104.318 141.918 105.995Z" fill="white"/>
<path d="M171.482 69.1605C173.674 68.4528 175.768 68.3918 177.764 68.9776C179.759 69.5633 181.517 70.7251 183.039 72.4629C184.584 74.1547 185.772 76.2883 186.603 78.8637C187.525 81.7176 187.829 84.3864 187.516 86.8699C187.238 89.3423 186.408 91.474 185.026 93.265C183.633 95.0212 181.77 96.2756 179.439 97.0282C177.803 97.5561 176.165 97.7197 174.524 97.519C172.908 97.2723 171.531 96.6982 170.395 95.7968L169.989 100.078L169.259 100.314L158.643 67.4244C158.295 66.3455 157.891 65.6304 157.432 65.2791C156.973 64.9277 156.378 64.87 155.647 65.1059C155.229 65.2407 154.648 65.5242 153.904 65.9566L153.668 65.2257L158.964 61.0954L159.695 60.8595L165.39 78.505C165.237 76.3639 165.712 74.4428 166.816 72.7416C167.908 71.0057 169.463 69.812 171.482 69.1605ZM169.03 89.7813C169.468 91.1387 170.185 92.3483 171.181 93.4103C172.177 94.4722 173.396 95.2125 174.837 95.6311C176.303 96.0036 177.871 95.9203 179.541 95.3811C181.142 94.8644 182.406 93.957 183.332 92.6589C184.258 91.3609 184.787 89.7873 184.921 87.9381C185.078 86.0428 184.819 84.0511 184.145 81.9629C183.303 79.3526 182.173 77.1618 180.756 75.3903C179.362 73.5728 177.807 72.3262 176.09 71.6506C174.362 70.9401 172.593 70.877 170.783 71.4611C169.147 71.989 167.888 73.0873 167.005 74.7558C166.11 76.3896 165.752 78.1961 165.929 80.1755L169.03 89.7813Z" fill="white"/>
<path d="M212.297 91.1985C211.244 91.3291 210.349 91.09 209.61 90.4815C208.903 89.8321 208.477 88.9268 208.333 87.7654L208.009 85.1523C206.66 87.6413 205.286 89.4885 203.887 90.6937C202.525 91.8945 201.01 92.5984 199.34 92.8055C196.908 93.1071 194.904 92.5449 193.327 91.1191C191.786 89.6887 190.844 87.5944 190.502 84.8361L188.774 70.8994C188.634 69.7743 188.372 68.9961 187.987 68.5648C187.602 68.1335 187.028 67.9651 186.266 68.0597C185.794 68.1182 185.152 68.2899 184.34 68.5749L184.245 67.8128L190.222 64.7498L190.984 64.6553L193.388 84.036C193.654 86.1773 194.401 87.7429 195.629 88.733C196.894 89.7186 198.506 90.0898 200.466 89.8467C201.954 89.6622 203.231 89.1168 204.298 88.2106C205.401 87.2999 206.586 85.8631 207.854 83.9002L205.977 68.7658C205.837 67.6407 205.575 66.8625 205.19 66.4312C204.805 65.9999 204.231 65.8315 203.469 65.9261C203.033 65.9801 202.409 66.1496 201.597 66.4346L201.503 65.6724L207.48 62.6095L208.242 62.5149L211.301 87.1763C211.377 87.7933 211.583 88.2652 211.918 88.5921C212.29 88.9146 212.712 89.0465 213.184 88.988C213.946 88.8935 214.584 88.2432 215.097 87.037L215.784 87.2282C215.398 88.566 214.873 89.534 214.21 90.1321C213.552 90.7665 212.914 91.122 212.297 91.1985Z" fill="white"/>
<path d="M219.349 86.8104C219.335 87.9441 219.618 88.7705 220.197 89.2897C220.812 89.8093 221.886 90.17 223.42 90.3718L223.411 91.1398L212.221 91.0016L212.23 90.2337C213.732 90.0693 214.778 89.7348 215.37 89.2301C215.998 88.7258 216.319 87.9068 216.333 86.7732L216.554 68.8363C216.569 67.6661 216.414 66.8595 216.09 66.4166C215.804 65.9376 215.276 65.6934 214.508 65.6839C214.033 65.678 213.373 65.7613 212.53 65.9338L212.54 65.1659L218.876 62.9399L219.644 62.9494L219.349 86.8104ZM215.456 55.6011C215.465 54.8698 215.728 54.2512 216.247 53.7456C216.801 53.2404 217.463 52.9926 218.231 53.002C218.962 53.0111 219.562 53.2745 220.031 53.7923C220.537 54.3106 220.785 54.9355 220.776 55.6668C220.767 56.3982 220.504 57.0167 219.985 57.5223C219.504 57.9919 218.898 58.2221 218.166 58.2131C217.399 58.2036 216.743 57.9578 216.201 57.4756C215.695 56.9573 215.447 56.3325 215.456 55.6011Z" fill="white"/>
<path d="M229.148 87.5899C229.043 88.7188 229.259 89.5651 229.794 90.129C230.366 90.6962 231.408 91.1417 232.921 91.4656L232.85 92.2303L221.707 91.1972L221.778 90.4324C223.287 90.3888 224.357 90.1391 224.987 89.6833C225.654 89.2309 226.039 88.4402 226.144 87.3114L228.863 57.9789C228.968 56.85 228.879 56.0337 228.595 55.5299C228.347 55.0295 227.823 54.7421 227.022 54.6679C226.585 54.6273 225.939 54.6593 225.085 54.7637L225.156 53.999L231.65 52.2873L232.415 52.3582L229.148 87.5899Z" fill="white"/>
<path d="M241.757 95.0057C239.546 94.5038 237.714 93.4879 236.261 91.9581C234.844 90.4364 233.903 88.5538 233.437 86.3105C233.015 84.0396 233.103 81.5846 233.702 78.9454C234.366 76.0209 235.448 73.5665 236.949 71.5819C238.485 69.6055 240.3 68.2175 242.394 67.4177C244.496 66.5824 246.742 66.4359 249.132 66.9782C250.63 67.3183 251.987 67.9452 253.205 68.8591C254.423 69.773 255.31 70.8183 255.868 71.995L257.86 63.2217C258.111 62.1161 258.128 61.295 257.913 60.7585C257.733 60.2301 257.25 59.8769 256.466 59.6988C256.038 59.6016 255.393 59.5491 254.532 59.5413L254.702 58.7923L261.365 57.9419L262.113 58.1119L254.063 93.58C253.925 94.1863 253.958 94.7001 254.163 95.1215C254.403 95.551 254.755 95.8184 255.218 95.9236C256.003 96.1017 256.824 95.7068 257.681 94.7388L258.262 95.152C257.444 96.2788 256.622 97.0109 255.795 97.3483C254.96 97.7214 254.24 97.8391 253.633 97.7015C252.635 97.4748 251.891 96.9498 251.403 96.1265C250.959 95.2756 250.862 94.2973 251.113 93.1917L251.83 90.0354C250.861 91.9906 249.446 93.4321 247.585 94.3598C245.768 95.2599 243.826 95.4752 241.757 95.0057ZM237.451 77.5463C236.844 80.2211 236.68 82.6778 236.96 84.9163C237.239 87.1548 237.941 89.0204 239.064 90.513C240.196 91.97 241.689 92.909 243.544 93.3299C245.22 93.7104 246.86 93.4263 248.463 92.4776C250.066 91.5289 251.295 90.158 252.153 88.3649L254.387 78.5216C254.703 77.1307 254.703 75.7245 254.388 74.3029C254.073 72.8814 253.381 71.6367 252.311 70.5687C251.284 69.4732 249.915 68.7311 248.203 68.3426C245.742 67.784 243.514 68.3471 241.519 70.0318C239.56 71.7247 238.204 74.2295 237.451 77.5463Z" fill="white"/>
<path d="M263.185 102.004C262.305 101.643 261.534 101.209 260.873 100.701C260.246 100.206 259.602 99.6068 258.942 98.9017C258.303 98.2443 257.831 97.8532 257.526 97.7284C256.985 97.5065 256.478 97.9708 256.007 99.1214L255.296 98.8302L257.335 90.2393L258.045 90.5305C257.896 92.9199 258.364 95.0088 259.449 96.7973C260.534 98.5858 261.957 99.8406 263.716 100.562C265.442 101.269 267.034 101.388 268.491 100.918C269.982 100.462 271.026 99.5064 271.622 98.0513C272.08 96.9346 272.157 95.8792 271.853 94.8851C271.549 93.891 271.03 92.9867 270.297 92.1723C269.611 91.338 268.598 90.2903 267.257 89.0294C265.809 87.6453 264.681 86.4914 263.874 85.5678C263.08 84.6103 262.516 83.5291 262.179 82.3241C261.857 81.0854 261.987 79.7554 262.57 78.3341C263.388 76.3376 264.757 75.0214 266.678 74.3857C268.612 73.7161 270.679 73.832 272.879 74.7335C273.759 75.0941 274.495 75.5146 275.089 75.995C275.683 76.4754 276.36 77.089 277.121 77.8357C277.659 78.4514 278.064 78.8148 278.334 78.9258C278.605 79.0367 278.84 78.9945 279.038 78.7993C279.285 78.584 279.533 78.1719 279.782 77.5627L280.493 77.854L278.602 85.7941L277.892 85.5029C277.938 83.2689 277.482 81.3431 276.524 79.7254C275.601 78.1216 274.225 76.9453 272.398 76.1964C270.875 75.5723 269.45 75.4821 268.122 75.9259C266.807 76.3359 265.88 77.2008 265.339 78.5205C264.937 79.5019 264.892 80.4319 265.203 81.3106C265.515 82.1893 265.994 82.9982 266.64 83.7371C267.319 84.4899 268.292 85.4421 269.559 86.5938C271.056 87.9579 272.227 89.1495 273.074 90.1686C273.969 91.1677 274.574 92.3443 274.888 93.6985C275.251 95.0326 275.106 96.495 274.454 98.0854C273.58 100.217 272.098 101.665 270.006 102.428C267.963 103.172 265.689 103.03 263.185 102.004Z" fill="white"/>
<path d="M284.783 114.238C283.998 113.703 283.334 113.118 282.793 112.483C282.282 111.869 281.777 111.149 281.278 110.322C280.789 109.546 280.409 109.066 280.137 108.88C279.653 108.551 279.061 108.9 278.361 109.927L277.726 109.495L281.505 101.515L282.14 101.947C281.497 104.254 281.521 106.394 282.211 108.369C282.901 110.344 284.032 111.867 285.603 112.938C287.144 113.988 288.677 114.435 290.2 114.278C291.753 114.142 292.973 113.424 293.858 112.125C294.538 111.127 294.832 110.111 294.741 109.075C294.651 108.04 294.331 107.047 293.783 106.098C293.285 105.14 292.512 103.905 291.462 102.393C290.333 100.738 289.47 99.3748 288.872 98.3037C288.295 97.2022 287.967 96.0273 287.888 94.7788C287.83 93.5002 288.234 92.2262 289.099 90.9569C290.314 89.1739 291.927 88.171 293.938 87.9481C295.969 87.6949 297.967 88.2378 299.931 89.5765C300.717 90.112 301.35 90.6764 301.831 91.2696C302.312 91.8629 302.847 92.6037 303.437 93.4923C303.835 94.2064 304.155 94.6458 304.397 94.8106C304.639 94.9754 304.877 94.9829 305.112 94.8331C305.397 94.6737 305.726 94.3221 306.096 93.7781L306.731 94.2106L303.232 101.585L302.597 101.152C303.107 98.9766 303.061 96.9981 302.46 95.2168C301.89 93.4562 300.789 92.0197 299.157 90.9075C297.797 89.9807 296.421 89.5964 295.03 89.7547C293.659 89.8827 292.572 90.536 291.769 91.7146C291.172 92.5909 290.935 93.4913 291.057 94.4156C291.179 95.3399 291.48 96.2306 291.958 97.0875C292.466 97.9651 293.22 99.0987 294.221 100.488C295.401 102.134 296.299 103.543 296.916 104.715C297.584 105.879 297.931 107.155 297.957 108.545C298.034 109.926 297.589 111.326 296.621 112.746C295.324 114.65 293.573 115.758 291.368 116.07C289.215 116.373 287.02 115.762 284.783 114.238Z" fill="white"/>
<path d="M303.62 125.151C303.273 125.383 302.729 125.565 301.986 125.695C301.272 125.85 300.506 125.84 299.69 125.665C298.877 125.542 298.139 125.192 297.476 124.618C295.984 123.324 295.254 121.821 295.287 120.107C295.32 118.394 296.127 116.625 297.708 114.801L310.175 100.416L306.734 97.4341L307.237 96.8537C308.996 97.8946 310.672 98.3064 312.264 98.089C313.856 97.8715 315.558 97.024 317.371 95.5463L317.951 96.0493L313.461 101.231L319.513 106.477L318.507 107.637L312.455 102.392L300.024 116.736C298.874 118.062 298.254 119.364 298.164 120.641C298.126 121.914 298.645 123.017 299.723 123.952C300.303 124.455 300.881 124.737 301.456 124.8C302.031 124.863 302.689 124.829 303.432 124.698L303.62 125.151Z" fill="white"/>
<path d="M314.578 143.633C313.887 142.828 313.591 141.95 313.689 140.998C313.839 140.05 314.358 139.195 315.246 138.432L317.244 136.717C314.424 136.969 312.125 136.846 310.348 136.347C308.594 135.877 307.17 135.003 306.074 133.727C304.478 131.867 303.838 129.886 304.154 127.784C304.493 125.709 305.718 123.766 307.827 121.956L318.483 112.809C319.343 112.07 319.846 111.422 319.992 110.862C320.139 110.303 319.962 109.732 319.462 109.149C319.152 108.788 318.654 108.348 317.967 107.829L318.55 107.329L324.407 110.615L324.907 111.198L310.089 123.918C308.452 125.323 307.56 126.811 307.415 128.382C307.293 129.981 307.875 131.53 309.162 133.028C310.138 134.166 311.299 134.929 312.644 135.316C314.013 135.732 315.865 135.925 318.202 135.895L329.773 125.962C330.634 125.224 331.137 124.575 331.283 124.016C331.43 123.456 331.253 122.885 330.753 122.302C330.467 121.969 329.98 121.543 329.294 121.024L329.877 120.524L335.734 123.81L336.234 124.393L317.378 140.579C316.906 140.984 316.627 141.416 316.54 141.877C316.477 142.364 316.6 142.789 316.91 143.15C317.41 143.732 318.305 143.904 319.594 143.665L319.814 144.343C318.486 144.761 317.389 144.859 316.524 144.637C315.632 144.44 314.983 144.105 314.578 143.633Z" fill="white"/>
<path d="M344.404 142.172L340.407 135.743L321.959 147.214C320.996 147.813 320.56 148.601 320.651 149.578C320.742 150.555 321.241 151.946 322.148 153.751L321.495 154.156L314.746 143.302L315.398 142.896C316.28 143.898 317.09 144.579 317.83 144.937C318.589 145.326 319.434 145.232 320.366 144.652L338.814 133.181L336.352 129.221L337.656 128.41L340.118 132.37L342.587 130.835C345.196 129.213 347.595 128.604 349.784 129.008C352.024 129.424 353.83 130.735 355.201 132.94C355.992 134.213 356.484 135.523 356.674 136.868C356.865 138.214 356.51 139.167 355.61 139.727C355.144 140.016 354.655 140.062 354.144 139.863C353.652 139.695 353.333 139.355 353.187 138.843C353.017 138.432 352.958 138.059 353.009 137.726C353.091 137.374 353.261 136.988 353.518 136.57C353.841 135.982 354.02 135.439 354.056 134.943C354.123 134.428 353.925 133.797 353.462 133.052C352.689 131.81 351.594 131.156 350.175 131.091C348.756 131.025 347.131 131.562 345.298 132.702L341.711 134.932L345.709 141.361L344.404 142.172Z" fill="white"/>
<path d="M351.981 158.279L348.781 151.418L329.093 160.599C328.066 161.078 327.539 161.808 327.512 162.789C327.485 163.77 327.814 165.211 328.498 167.111L327.802 167.436L322.4 155.852L323.096 155.527C323.852 156.627 324.575 157.4 325.266 157.844C325.973 158.321 326.824 158.328 327.818 157.865L347.506 148.684L345.535 144.458L346.928 143.808L348.898 148.034L351.533 146.806C354.317 145.507 356.772 145.19 358.897 145.853C361.071 146.534 362.707 148.051 363.804 150.405C364.438 151.764 364.769 153.122 364.797 154.481C364.826 155.84 364.359 156.743 363.398 157.192C362.901 157.424 362.41 157.41 361.927 157.152C361.458 156.926 361.182 156.55 361.098 156.025C360.979 155.596 360.965 155.219 361.056 154.894C361.179 154.554 361.394 154.192 361.699 153.808C362.09 153.262 362.333 152.745 362.428 152.257C362.557 151.753 362.435 151.104 362.064 150.308C361.446 148.982 360.437 148.202 359.036 147.968C357.635 147.733 355.957 148.072 354.002 148.984L350.173 150.769L353.373 157.63L351.981 158.279Z" fill="white"/>
<path d="M332.241 188.775L332.524 187.732L346.747 188.532L341.692 175.214L342.601 174.629L352.692 184.616L359.19 172.067L360.233 172.35L359.541 186.555L372.751 181.517L373.336 182.426L363.349 192.517L375.898 199.016L375.615 200.059L361.518 199.35L366.448 212.576L365.539 213.161L355.556 203.157L348.949 215.724L347.906 215.441L348.723 201.326L335.389 206.273L334.804 205.364L344.808 195.381L332.241 188.775Z" fill="white"/>
<path d="M359.859 240.801L360.876 233.299L339.349 230.383C338.225 230.231 337.387 230.56 336.834 231.371C336.282 232.182 335.78 233.572 335.329 235.541L334.568 235.438L336.283 222.772L337.044 222.875C337.085 224.209 337.276 225.25 337.618 225.997C337.955 226.781 338.667 227.246 339.754 227.393L361.281 230.31L361.906 225.689L363.429 225.895L362.803 230.516L365.684 230.906C368.728 231.318 370.965 232.378 372.394 234.085C373.855 235.833 374.411 237.993 374.063 240.566C373.862 242.052 373.406 243.374 372.695 244.533C371.985 245.691 371.104 246.199 370.053 246.057C369.509 245.983 369.104 245.707 368.837 245.228C368.564 244.785 368.535 244.32 368.749 243.832C368.88 243.407 369.072 243.082 369.324 242.858C369.612 242.639 369.988 242.45 370.452 242.291C371.076 242.044 371.56 241.74 371.904 241.381C372.284 241.026 372.533 240.414 372.651 239.545C372.848 238.095 372.42 236.893 371.368 235.939C370.317 234.984 368.722 234.362 366.583 234.073L362.398 233.506L361.381 241.007L359.859 240.801Z" fill="white"/>
<path d="M358.106 257.403C357.798 258.608 357.31 259.483 356.642 260.03C356.009 260.585 355.338 260.773 354.63 260.591C354.169 260.474 353.802 260.21 353.529 259.801C353.248 259.427 353.165 259.009 353.283 258.549C353.383 258.159 353.513 257.871 353.674 257.686C353.87 257.51 354.146 257.316 354.502 257.105C354.911 256.832 355.218 256.59 355.423 256.378C355.629 256.166 355.79 255.83 355.908 255.369C356.134 254.483 356.015 253.547 355.55 252.56C355.111 251.618 354.388 250.753 353.381 249.968C352.365 249.217 351.166 248.665 349.784 248.312L336.604 244.943C335.434 244.645 334.511 244.862 333.833 245.594C333.19 246.336 332.531 247.658 331.856 249.562L331.112 249.372L334.263 237.041L335.007 237.231C334.787 238.685 334.848 239.776 335.19 240.505C335.567 241.244 336.288 241.749 337.351 242.02L354.783 246.476C355.917 246.765 356.738 246.805 357.244 246.595C357.777 246.429 358.139 245.974 358.329 245.23C358.447 244.77 358.521 244.109 358.552 243.249L359.296 243.439L359.967 250.122L359.776 250.866L353.505 249.263C355.353 250.302 356.677 251.546 357.477 252.996C358.276 254.446 358.486 255.915 358.106 257.403Z" fill="white"/>
<path d="M325.587 261.481C326.491 259.322 327.82 257.618 329.572 256.369C331.343 255.169 333.388 254.499 335.707 254.359C338.045 254.268 340.479 254.752 343.008 255.812C345.741 256.956 347.948 258.455 349.629 260.31C351.345 262.178 352.409 264.229 352.821 266.464C353.267 268.712 353.017 270.967 352.07 273.227C351.166 275.386 349.821 277.082 348.035 278.317C346.283 279.565 344.238 280.235 341.9 280.327C339.581 280.466 337.157 280.006 334.627 278.946C331.861 277.788 329.638 276.281 327.956 274.427C326.274 272.573 325.21 270.521 324.764 268.273C324.352 266.038 324.626 263.774 325.587 261.481ZM344.267 259.907C341.737 258.848 339.247 258.261 336.797 258.147C334.347 258.032 332.208 258.405 330.381 259.266C328.553 260.126 327.279 261.416 326.559 263.137C325.965 264.553 325.85 266.012 326.213 267.512C326.61 269.026 327.416 270.414 328.632 271.677C329.867 272.987 331.429 274.038 333.318 274.829C335.848 275.889 338.338 276.476 340.788 276.59C343.272 276.719 345.435 276.336 347.276 275.442C349.104 274.581 350.378 273.291 351.098 271.571C351.706 270.12 351.811 268.638 351.414 267.124C351.037 265.657 350.224 264.286 348.975 263.009C347.725 261.732 346.156 260.699 344.267 259.907Z" fill="white"/>
<path d="M303.173 305.335C302.266 304.655 301.432 304.395 300.671 304.556C299.888 304.747 298.963 305.401 297.896 306.521L297.281 306.06L303.993 297.106L304.608 297.566C303.833 298.905 303.475 299.962 303.534 300.737C303.57 301.542 304.042 302.284 304.949 302.964L316.801 311.848C318.44 313.077 320.093 313.585 321.76 313.372C323.406 313.189 324.799 312.336 325.94 310.815C326.773 309.703 327.205 308.426 327.233 306.985C327.27 305.596 327.046 303.76 326.563 301.478C326.278 301.31 325.857 301.017 325.301 300.6L313.406 291.684C312.498 291.004 311.665 290.744 310.904 290.905C310.121 291.096 309.196 291.75 308.129 292.87L307.514 292.409L314.226 283.455L314.841 283.915C314.037 285.232 313.664 286.278 313.723 287.054C313.781 287.829 314.279 288.567 315.215 289.269L327.067 298.153C328.705 299.382 330.348 299.904 331.993 299.721C333.639 299.538 335.032 298.685 336.173 297.164C337.006 296.052 337.441 294.801 337.477 293.411C337.514 292.021 337.29 290.186 336.807 287.904L323.639 278.033C322.731 277.353 321.898 277.093 321.137 277.254C320.354 277.445 319.429 278.099 318.362 279.219L317.747 278.758L324.459 269.804L325.074 270.264C324.321 271.574 323.974 272.616 324.032 273.392C324.069 274.196 324.541 274.938 325.448 275.618L339.802 286.378C340.738 287.08 341.48 287.431 342.029 287.431C342.585 287.482 343.093 287.2 343.554 286.585C343.839 286.205 344.161 285.623 344.519 284.841L345.133 285.301L343.193 291.731L342.732 292.346L337.86 288.693C338.643 291.246 338.966 293.407 338.827 295.177C338.689 296.947 338.137 298.476 337.172 299.764C335.965 301.373 334.514 302.365 332.817 302.738C331.149 303.133 329.375 302.878 327.495 301.971C328.323 304.648 328.682 306.883 328.572 308.675C328.47 310.518 327.926 312.098 326.939 313.415C325.469 315.375 323.685 316.414 321.586 316.532C319.464 316.679 317.292 315.919 315.068 314.251L303.173 305.335Z" fill="white"/>
<path d="M282.743 317.953C282.586 317.567 282.52 316.997 282.543 316.243C282.538 315.512 282.704 314.764 283.042 314.001C283.329 313.231 283.822 312.58 284.52 312.048C286.091 310.852 287.712 310.445 289.383 310.827C291.053 311.21 292.62 312.361 294.082 314.281L305.616 329.425L309.238 326.666L309.703 327.277C308.325 328.787 307.579 330.343 307.467 331.945C307.354 333.548 307.836 335.388 308.912 337.464L308.301 337.93L304.146 332.475L297.775 337.328L296.844 336.106L303.216 331.253L291.715 316.153C290.651 314.757 289.504 313.884 288.272 313.534C287.034 313.236 285.848 313.52 284.713 314.384C284.102 314.849 283.707 315.357 283.528 315.907C283.35 316.457 283.248 317.108 283.225 317.862L282.743 317.953Z" fill="white"/>
<path d="M264.768 329.562C264.219 328.57 263.564 327.992 262.804 327.827C262.012 327.68 260.9 327.899 259.468 328.482L259.096 327.81L268.888 322.392L269.259 323.064C268.004 323.968 267.244 324.785 266.98 325.516C266.684 326.265 266.811 327.136 267.359 328.128L274.425 340.895C275.505 342.847 276.76 344.096 278.191 344.642C279.621 345.188 281.153 345.009 282.785 344.106C284.097 343.38 285.139 342.281 285.912 340.808C286.686 339.335 287.294 337.452 287.739 335.158L279.983 321.142C279.434 320.15 278.78 319.572 278.02 319.407C277.228 319.26 276.116 319.479 274.683 320.062L274.311 319.391L284.103 313.972L284.475 314.644C283.251 315.53 282.508 316.339 282.244 317.07C281.947 317.819 282.074 318.689 282.623 319.681L296.886 345.456C297.435 346.448 297.969 347.073 298.487 347.329C298.973 347.604 299.568 347.546 300.272 347.156C300.656 346.944 301.172 346.554 301.819 345.987L302.191 346.659L297.787 351.729L297.115 352.101L288.376 336.31C287.764 341.623 286.033 345.067 283.185 346.643C281.041 347.829 278.963 348.039 276.95 347.272C274.955 346.537 273.267 344.922 271.886 342.426L264.768 329.562Z" fill="white"/>
<path d="M251.263 328.643C253.612 327.828 255.86 327.667 258.006 328.161C260.163 328.689 262.051 329.776 263.667 331.421C265.296 333.101 266.542 335.185 267.405 337.672C268.365 340.436 268.733 343.057 268.509 345.535C268.263 348.059 267.469 350.232 266.127 352.053C264.785 353.874 262.974 355.18 260.694 355.972C258.932 356.584 257.262 356.68 255.683 356.26C254.071 355.852 252.667 355.042 251.472 353.831C250.277 352.62 249.38 351.151 248.78 349.423C248.564 348.801 248.42 348.329 248.346 348.006L265.396 342.086C265.286 341.66 265.076 340.997 264.764 340.099C263.552 336.61 261.682 334.065 259.152 332.466C256.6 330.913 253.769 330.677 250.66 331.756C249.174 332.272 247.995 333.224 247.122 334.611C246.226 336.045 245.829 337.634 245.932 339.379L245.204 339.458C244.78 337.011 245.129 334.78 246.248 332.765C247.346 330.797 249.017 329.423 251.263 328.643ZM251.678 348.069C252.38 350.535 253.611 352.353 255.372 353.522C257.133 354.692 259.015 354.929 261.019 354.233C263.161 353.489 264.619 352.17 265.394 350.275C266.168 348.38 266.26 346.025 265.67 343.211L251.678 348.069Z" fill="white"/>
<path d="M224.214 362.969C221.918 363.166 219.864 362.756 218.051 361.738C216.238 360.719 214.785 359.192 213.692 357.157C212.566 355.162 211.887 352.816 211.655 350.12C211.398 347.132 211.7 344.463 212.562 342.113C213.388 339.766 214.675 337.875 216.423 336.44C218.175 335.041 220.271 334.236 222.713 334.026C224.243 333.894 225.727 334.079 227.165 334.579C228.603 335.079 229.767 335.805 230.656 336.756L229.856 327.465C229.756 326.299 229.269 325.551 228.397 325.223C227.484 324.861 226 324.677 223.944 324.67L223.878 323.905L236.613 322.808L236.679 323.573C235.386 323.905 234.412 324.319 233.757 324.816C233.063 325.28 232.765 326.076 232.862 327.206L235.347 356.064C235.444 357.193 235.677 357.981 236.046 358.426C236.415 358.871 236.982 359.061 237.747 358.995C238.184 358.958 238.814 358.812 239.636 358.557L239.702 359.322L233.614 362.159L232.849 362.225L232.247 355.229C231.916 357.35 231.021 359.116 229.565 360.526C228.111 361.972 226.327 362.787 224.214 362.969ZM231.23 343.424C231.108 342.003 230.681 340.663 229.948 339.405C229.216 338.146 228.194 337.151 226.883 336.42C225.539 335.728 223.992 335.458 222.243 335.608C220.567 335.753 219.132 336.353 217.938 337.411C216.745 338.468 215.876 339.882 215.331 341.655C214.753 343.466 214.558 345.465 214.746 347.651C214.981 350.384 215.591 352.773 216.574 354.817C217.525 356.901 218.76 358.465 220.282 359.508C221.806 360.588 223.516 361.047 225.411 360.884C227.123 360.736 228.597 359.948 229.832 358.521C231.071 357.129 231.825 355.449 232.096 353.48L231.23 343.424Z" fill="white"/>
<path d="M189.54 337.457C189.658 336.33 189.452 335.481 188.923 334.911C188.358 334.337 187.321 333.88 185.812 333.539L185.892 332.775L197.022 333.936L196.943 334.7C195.396 334.722 194.305 334.958 193.67 335.406C192.998 335.851 192.604 336.637 192.486 337.765L190.972 352.278C190.741 354.497 191.055 356.239 191.916 357.506C192.777 358.772 194.135 359.502 195.99 359.696C197.481 359.851 198.965 359.547 200.442 358.781C201.919 358.016 203.497 356.82 205.174 355.194L206.836 339.262C206.953 338.134 206.748 337.285 206.219 336.715C205.654 336.142 204.617 335.684 203.108 335.343L203.188 334.579L214.318 335.74L214.239 336.504C212.728 336.53 211.656 336.768 211.02 337.216C210.349 337.661 209.954 338.447 209.837 339.575L206.78 368.874C206.663 370.002 206.743 370.819 207.021 371.326C207.262 371.829 207.783 372.123 208.584 372.206C209.02 372.252 209.666 372.227 210.522 372.132L210.442 372.896L203.928 374.533L203.165 374.454L205.037 356.503C201.494 360.509 198.104 362.343 194.866 362.005C192.429 361.751 190.605 360.734 189.393 358.953C188.178 357.208 187.719 354.917 188.015 352.08L189.54 337.457Z" fill="white"/>
<path d="M181.99 335.135C182.258 334.033 182.168 333.164 181.721 332.528C181.238 331.884 180.272 331.291 178.822 330.751L179.004 330.004L189.878 332.65L189.696 333.396C188.196 333.219 187.101 333.31 186.412 333.67C185.686 334.02 185.19 334.746 184.922 335.848L180.682 353.278C180.405 354.415 180.375 355.235 180.591 355.74C180.763 356.271 181.222 356.627 181.968 356.809C182.43 356.921 183.091 356.988 183.952 357.009L183.77 357.755L177.096 358.503L176.349 358.321L181.99 335.135ZM178.782 366.422C178.61 367.132 178.214 367.676 177.595 368.053C176.941 368.42 176.241 368.513 175.495 368.332C174.784 368.159 174.258 367.768 173.917 367.158C173.541 366.539 173.439 365.875 173.612 365.164C173.785 364.453 174.181 363.91 174.799 363.533C175.374 363.184 176.016 363.095 176.727 363.268C177.473 363.45 178.056 363.836 178.477 364.428C178.854 365.046 178.955 365.711 178.782 366.422Z" fill="white"/>
<path d="M171.974 332.028C172.33 330.952 172.311 330.079 171.916 329.409C171.487 328.727 170.572 328.059 169.171 327.402L169.413 326.673L180.037 330.19L179.795 330.919C178.314 330.622 177.216 330.624 176.499 330.926C175.748 331.217 175.194 331.9 174.838 332.976L165.581 360.942C165.224 362.019 165.128 362.834 165.291 363.389C165.419 363.932 165.865 364.33 166.629 364.583C167.046 364.721 167.682 364.835 168.538 364.926L168.297 365.655L161.584 365.86L160.854 365.619L171.974 332.028Z" fill="white"/>
<path d="M162.992 328.439C163.43 327.393 163.478 326.521 163.136 325.823C162.76 325.11 161.899 324.373 160.553 323.611L160.85 322.903L171.172 327.226L170.875 327.934C169.421 327.524 168.326 327.441 167.588 327.688C166.817 327.92 166.212 328.559 165.774 329.604L158.845 346.15C158.392 347.229 158.233 348.035 158.368 348.567C158.454 349.118 158.851 349.543 159.559 349.839C159.998 350.023 160.64 350.193 161.487 350.349L161.19 351.058L154.481 350.746L153.773 350.449L162.992 328.439ZM154.901 358.831C154.618 359.506 154.142 359.981 153.472 360.255C152.768 360.515 152.062 360.497 151.354 360.201C150.679 359.918 150.222 359.449 149.981 358.793C149.706 358.123 149.71 357.45 149.993 356.776C150.276 356.101 150.752 355.627 151.422 355.352C152.044 355.097 152.692 355.111 153.367 355.394C154.075 355.69 154.591 356.164 154.913 356.814C155.188 357.485 155.184 358.157 154.901 358.831Z" fill="white"/>
<path d="M135.315 340.737C133.332 339.564 131.899 338.036 131.015 336.154C130.131 334.272 129.835 332.185 130.128 329.894C130.371 327.616 131.181 325.312 132.558 322.982C134.084 320.401 135.881 318.404 137.948 316.992C139.984 315.562 142.13 314.77 144.387 314.618C146.625 314.497 148.799 315.06 150.908 316.307C152.23 317.089 153.331 318.101 154.211 319.344C155.091 320.586 155.616 321.853 155.788 323.144L160.535 315.117C161.13 314.109 161.168 313.219 160.649 312.444C160.117 311.62 159.016 310.607 157.346 309.408L157.737 308.747L168.739 315.252L168.348 315.914C167.103 315.432 166.07 315.204 165.249 315.228C164.414 315.202 163.709 315.677 163.132 316.653L148.389 341.584C147.812 342.56 147.544 343.336 147.585 343.913C147.626 344.49 147.978 344.974 148.639 345.365C149.016 345.588 149.614 345.835 150.431 346.106L150.04 346.767L143.437 345.539L142.776 345.148L146.35 339.104C144.848 340.638 143.095 341.555 141.09 341.857C139.066 342.19 137.141 341.816 135.315 340.737ZM152.381 328.905C153.107 327.677 153.538 326.338 153.673 324.889C153.808 323.439 153.554 322.036 152.912 320.679C152.22 319.335 151.118 318.216 149.607 317.322C148.159 316.466 146.642 316.121 145.056 316.288C143.47 316.455 141.941 317.102 140.468 318.228C138.945 319.366 137.625 320.88 136.508 322.769C135.112 325.13 134.22 327.428 133.833 329.663C133.396 331.911 133.493 333.902 134.126 335.636C134.739 337.4 135.864 338.767 137.501 339.735C138.981 340.61 140.638 340.825 142.473 340.38C144.289 339.967 145.879 339.038 147.244 337.593L152.381 328.905Z" fill="white"/>
<path d="M112.782 323.615C111.058 322.087 109.941 320.315 109.431 318.299C108.921 316.283 109.027 314.178 109.75 311.984C110.421 309.794 111.654 307.686 113.449 305.66C115.438 303.416 117.581 301.797 119.879 300.804C122.149 299.786 124.407 299.417 126.652 299.696C128.872 300.003 130.899 300.969 132.733 302.594C133.883 303.613 134.771 304.816 135.399 306.203C136.026 307.59 136.302 308.933 136.225 310.233L142.41 303.254C143.186 302.379 143.393 301.511 143.031 300.652C142.665 299.742 141.776 298.539 140.365 297.043L140.874 296.469L150.44 304.947L149.93 305.521C148.799 304.812 147.829 304.391 147.017 304.259C146.203 304.075 145.42 304.407 144.668 305.256L125.456 326.932C124.704 327.78 124.294 328.491 124.225 329.065C124.156 329.64 124.409 330.181 124.983 330.691C125.312 330.982 125.851 331.338 126.602 331.759L126.093 332.334L119.844 329.874L119.269 329.364L123.926 324.109C122.16 325.33 120.264 325.897 118.239 325.812C116.188 325.754 114.37 325.022 112.782 323.615ZM131.786 315.242C132.732 314.174 133.409 312.942 133.817 311.544C134.225 310.147 134.242 308.721 133.87 307.266C133.445 305.815 132.576 304.508 131.263 303.343C130.004 302.227 128.58 301.601 126.991 301.463C125.403 301.326 123.778 301.67 122.118 302.495C120.407 303.324 118.823 304.559 117.368 306.201C115.548 308.254 114.236 310.341 113.431 312.462C112.575 314.586 112.292 316.559 112.583 318.381C112.85 320.23 113.695 321.786 115.119 323.047C116.405 324.187 117.991 324.713 119.877 324.625C121.739 324.565 123.476 323.955 125.091 322.796L131.786 315.242Z" fill="white"/>
<path d="M116.761 293.144C117.621 292.405 118.055 291.648 118.062 290.87C118.046 290.065 117.607 289.02 116.745 287.735L117.328 287.235L124.617 295.727L124.034 296.227C122.919 295.208 121.976 294.644 121.207 294.533C120.413 294.395 119.586 294.695 118.726 295.433L105.115 307.117C104.227 307.88 103.723 308.528 103.605 309.064C103.435 309.596 103.6 310.153 104.1 310.736C104.41 311.096 104.908 311.536 105.594 312.056L105.012 312.556L99.1543 309.27L98.6541 308.687L116.761 293.144ZM95.905 316.686C95.35 317.162 94.7115 317.373 93.9895 317.318C93.2437 317.235 92.6207 316.902 92.1205 316.32C91.644 315.765 91.4453 315.14 91.5241 314.446C91.5791 313.724 91.8841 313.125 92.4391 312.648C92.9941 312.172 93.6326 311.961 94.3546 312.016C95.025 312.067 95.5984 312.37 96.0748 312.925C96.575 313.508 96.8234 314.162 96.82 314.888C96.765 315.61 96.46 316.209 95.905 316.686Z" fill="white"/>
<path d="M101.695 271.243C102.646 270.627 103.178 269.934 103.29 269.165C103.382 268.365 103.088 267.27 102.406 265.881L103.051 265.464L109.132 274.858L108.487 275.276C107.499 274.086 106.631 273.384 105.884 273.171C105.116 272.927 104.256 273.114 103.304 273.73L91.0548 281.659C89.182 282.871 88.0227 284.21 87.5768 285.675C87.131 287.139 87.4148 288.655 88.4283 290.22C89.2431 291.479 90.4118 292.443 91.9345 293.113C93.4572 293.783 95.3781 294.26 97.6972 294.545L111.144 285.841C112.096 285.225 112.628 284.532 112.74 283.763C112.832 282.963 112.537 281.868 111.856 280.48L112.501 280.062L118.582 289.457L117.937 289.874C116.969 288.715 116.111 288.029 115.363 287.816C114.595 287.572 113.735 287.758 112.784 288.374L97.7249 298.122C96.7425 298.758 96.1565 299.333 95.9669 299.848C95.7268 300.352 95.8154 300.926 96.2327 301.571C96.4911 301.97 96.9255 302.473 97.5361 303.079L96.8914 303.497L91.5292 299.453L91.1119 298.808L96.592 295.261C91.2494 295.016 87.6938 293.528 85.9251 290.795C84.5936 288.738 84.2411 286.679 84.8675 284.618C85.4631 282.577 86.9583 280.782 89.353 279.232L101.695 271.243Z" fill="white"/>
<path d="M101.671 257.644C102.648 259.931 102.964 262.162 102.62 264.336C102.243 266.526 101.289 268.484 99.7602 270.21C98.1972 271.952 96.2049 273.339 93.7833 274.373C91.0926 275.522 88.5036 276.071 86.0162 276.02C83.4808 275.949 81.2583 275.308 79.3487 274.095C77.439 272.882 76.0103 271.166 75.0624 268.946C74.3299 267.231 74.1184 265.572 74.4279 263.968C74.7229 262.331 75.4332 260.874 76.5585 259.599C77.6839 258.323 79.0874 257.326 80.7691 256.608C81.3745 256.349 81.8357 256.172 82.1528 256.076L89.2404 272.674C89.6583 272.536 90.3046 272.28 91.179 271.906C94.576 270.456 96.9845 268.413 98.4046 265.779C99.7767 263.125 99.8164 260.285 98.5239 257.258C97.9063 255.811 96.8753 254.701 95.4309 253.926C93.9385 253.131 92.3254 252.846 90.5915 253.069L90.4628 252.349C92.8742 251.757 95.1238 251.949 97.2114 252.927C99.251 253.885 100.738 255.457 101.671 257.644ZM82.3213 259.404C79.9095 260.275 78.1813 261.63 77.1369 263.467C76.0924 265.305 75.9867 267.199 76.8197 269.15C77.7101 271.235 79.1273 272.599 81.0713 273.24C83.0153 273.881 85.3708 273.81 88.1378 273.026L82.3213 259.404Z" fill="white"/>
<path d="M96.5844 241.575C96.8261 242.495 96.9432 243.371 96.9355 244.205C96.9185 245.004 96.8271 245.879 96.6611 246.83C96.5213 247.736 96.4932 248.349 96.5769 248.667C96.7256 249.233 97.4013 249.358 98.6039 249.042L98.7991 249.785L90.7121 253.328L90.5168 252.586C92.5145 251.266 93.9008 249.635 94.6757 247.692C95.4506 245.749 95.5963 243.858 95.1128 242.019C94.6386 240.215 93.7753 238.872 92.5228 237.992C91.261 237.075 89.8696 236.817 88.3487 237.217C87.1815 237.524 86.2925 238.098 85.6817 238.939C85.071 239.78 84.6612 240.739 84.4524 241.815C84.199 242.864 83.9724 244.304 83.7727 246.134C83.5395 248.124 83.2971 249.719 83.0455 250.919C82.7585 252.129 82.2351 253.231 81.4754 254.225C80.6803 255.228 79.54 255.925 78.0544 256.315C75.9676 256.864 74.0923 256.563 72.4285 255.412C70.7293 254.27 69.5775 252.55 68.9732 250.251C68.7315 249.331 68.6237 248.49 68.65 247.727C68.6763 246.964 68.7584 246.053 68.8965 244.996C69.0642 244.196 69.1109 243.654 69.0365 243.371C68.9621 243.088 68.7872 242.926 68.5117 242.885C68.1916 242.818 67.7132 242.868 67.0765 243.036L66.8813 242.293L74.3595 239.022L74.5548 239.765C72.7433 241.073 71.4799 242.597 70.7646 244.335C70.04 246.038 69.9288 247.844 70.4308 249.754C70.8492 251.346 71.6354 252.539 72.7892 253.332C73.9077 254.134 75.1567 254.354 76.5361 253.992C77.5619 253.722 78.3317 253.198 78.8457 252.42C79.3596 251.643 79.7173 250.773 79.9186 249.813C80.1106 248.817 80.285 247.467 80.4418 245.762C80.6304 243.746 80.8765 242.093 81.1803 240.803C81.4394 239.487 82.0149 238.296 82.9068 237.229C83.7541 236.137 85.0089 235.372 86.6713 234.935C88.8996 234.35 90.948 234.662 92.8165 235.872C94.6404 237.057 95.8964 238.958 96.5844 241.575Z" fill="white"/>
<path d="M94.2155 215.319L93.7422 216.29L79.9213 212.84L82.3918 226.869L81.3895 227.273L73.348 215.573L64.6136 226.683L63.6422 226.209L66.983 212.385L53.0634 214.859L52.6595 213.857L64.3598 205.815L53.2498 197.081L53.7231 196.109L67.4383 199.446L65.0735 185.53L66.0758 185.127L74.0077 196.823L82.8517 185.717L83.8231 186.19L80.3765 199.901L94.4019 197.541L94.8058 198.543L83.1094 206.475L94.2155 215.319Z" fill="white"/>
</svg>
